<svg id="Capa_1" enable-background="new 0 0 512 512" height="512" viewBox="0 0 512 512" width="512" xmlns="http://www.w3.org/2000/svg"><g><path d="m272.09 512c-4.034 0-7.826-1.571-10.678-4.423l-99.339-99.338c-5.887-5.887-5.887-15.466 0-21.354l15.769-15.769c2.852-2.852 6.644-4.423 10.677-4.423 4 0 7.763 1.545 10.606 4.353l60.448-60.448c2.93-2.93 7.678-2.928 10.607 0 2.929 2.929 2.929 7.678 0 10.606l-11.675 11.675 55.321 22.568c3.835 1.564 5.676 5.942 4.111 9.777-1.563 3.834-5.941 5.675-9.777 4.111l-61.161-24.95-37.267 37.267 78.267 78.267 29.21-29.21-62.373-25.445c-3.835-1.564-5.676-5.942-4.111-9.777 1.564-3.835 5.94-5.677 9.777-4.111l68.214 27.827 20.166-20.166-32.952-80.777c-1.564-3.835.276-8.213 4.111-9.777 3.837-1.565 8.213.276 9.777 4.111l30.569 74.937 10.287-10.287-45.354-111.18-34.146 34.146c-2.93 2.929-7.678 2.929-10.607 0s-2.929-7.678 0-10.606l15.501-15.5c-16.066-8.284-29.388-19.564-39.493-33.364-20.42 14.913-41.839 22.761-62.272 22.761-17.949 0-33.299-8.439-42.114-23.152-16.236-27.1-9.642-71.06 18.566-123.784 22.065-41.244 29.657-75.185 20.306-90.792-4.342-7.25-12.552-10.773-25.1-10.773-15.744 0-29.767 6.351-42.871 19.416-15.66 15.613-29.83 40.965-42.138 75.381 2.995 2.254 5.439 5.197 7.14 8.659 2.847 5.798 3.266 12.358 1.179 18.471-1.501 4.396-23.07 55.979-64.107 153.316-2.745 6.51-9.589 9.579-16.275 7.296-6.686-2.282-10.225-8.896-8.416-15.725 27.047-102.104 41.523-156.108 43.026-160.511 3.468-10.159 13.081-16.501 23.262-16.37 25.198-70.598 57.668-104.933 99.2-104.933 12.384 0 29.023 3.134 37.968 18.063 6.716 11.209 7.854 26.992 3.381 46.908-3.867 17.224-11.716 36.962-23.33 58.668-25.251 47.197-32.149 86.925-18.925 108.999 6.128 10.229 16.515 15.861 29.247 15.861 17.492 0 36.169-7.066 54.253-20.483-1.967-3.659-3.74-7.456-5.313-11.382-9.207-22.983-11.299-49.878-5.893-75.731 3.685-17.62 10.776-33.725 19.969-45.346 10.38-13.122 22.733-20.057 35.725-20.057 20.611 0 29.759 10.68 33.803 19.639 6.136 13.595 4.852 33.707-3.617 56.629-7.979 21.597-21.496 43.834-38.062 62.615-2.741 3.106-7.48 3.403-10.586.663s-3.403-7.479-.664-10.586c30.771-34.885 48.748-82.122 39.257-103.15-3.283-7.274-9.868-10.811-20.131-10.811-17.283 0-34.53 22.489-41.01 53.474-8.268 39.535 1.375 94.048 55.248 118.917l69.073-69.072c-5.818-5.894-5.794-15.42.069-21.284l10.467-10.465c5.884-5.886 15.464-5.887 21.354-.001l25.297 25.297c2.929 2.929 2.929 7.678 0 10.606-2.931 2.93-7.679 2.929-10.607 0l-25.296-25.296c-.037-.039-.102-.039-.141 0l-10.467 10.465c-.033.034-.033.108.001.142l99.339 99.339c.039.039.102.039.141 0l10.467-10.465c.038-.039.038-.103-.001-.142l-53.13-53.129c-2.929-2.929-2.929-7.678 0-10.606s7.677-2.93 10.607 0l53.13 53.129c5.887 5.888 5.887 15.468 0 21.354l-10.467 10.465c-5.864 5.863-15.39 5.887-21.283.071l-55.403 55.404c-2.93 2.929-7.678 2.929-10.607 0s-2.929-7.678 0-10.606l12.105-12.105-67.134-27.387 27.387 67.133 5.196-5.196c2.93-2.929 7.678-2.929 10.607 0s2.929 7.678 0 10.606l-99.379 99.379c2.808 2.843 4.353 6.606 4.353 10.606 0 4.034-1.571 7.826-4.424 10.678l-15.767 15.768c-2.854 2.852-6.646 4.422-10.678 4.422zm-83.571-130.303c-.027 0-.054.008-.071.025l-15.768 15.768c-.039.039-.039.103 0 .142l99.34 99.339c.033.033.108.033.142 0l15.767-15.768c.034-.034.034-.108.001-.141l-99.339-99.339c-.018-.017-.045-.026-.072-.026zm-5.374-5.278h.01zm163.721-97.25 86.568 35.314 10.295-10.295-77.256-31.516c-3.835-1.564-5.676-5.942-4.111-9.777 1.563-3.835 5.94-5.676 9.777-4.111l83.097 33.898 9.99-9.99-78.268-78.267-50.133 50.133zm-280.474-159.237c-3.821 0-7.396 2.404-8.698 6.216-.587 1.72-5.341 18.559-35.681 132.945 44.233-105.007 52.335-124.884 53.062-127.012.792-2.321.633-4.812-.448-7.013s-2.955-3.851-5.276-4.643c-.979-.335-1.977-.493-2.959-.493z"/></g></svg>