<?xml version="1.0"?>
<svg xmlns="http://www.w3.org/2000/svg" xmlns:xlink="http://www.w3.org/1999/xlink" xmlns:svgjs="http://svgjs.com/svgjs" version="1.1" width="512" height="512" x="0" y="0" viewBox="0 0 56 56" style="enable-background:new 0 0 512 512" xml:space="preserve" class=""><g><g xmlns="http://www.w3.org/2000/svg" id="Page-1" fill="none" fill-rule="evenodd"><g id="035---Corset" fill="rgb(0,0,0)" fill-rule="nonzero" transform="translate(-1)"><path id="Shape" d="m53.35 20.545c-.030921.0230749-.0603158.0481273-.088.075-2.5418893 2.2689865-5.8561513 3.4784667-9.262 3.38-5.661 0-11.336-2.979-13.51-4.256 7.847-9.413 20.691-12.556 25.596-13.444.6113646 1.68635541.9207628 3.46725655.914 5.261.0846042 3.3717595-1.237783 6.6266436-3.65 8.984zm-15.419 32.989c-2.469-5.314-3.931-9.591-3.931-11.534 0-1.894 1.979-8.057 5.306-16.551 1.5400478.3533907 3.1139788.5381449 4.694.551.6644146-.0038195 1.328104-.0445489 1.988-.122-2.409 6.222-4.988 13.498-4.988 16.122 0 1.821.9 4.867 2.646 9.033-1.757.823-3.736 1.707-5.715 2.501zm3.624-49.7c2.905-1.934 6.138-3.734 10.115-3.834 1.4758757 1.22076791 2.6941814 2.72291445 3.584 4.419-4.795.916-15.37 3.662-23.3 10.914 2.1529576-4.5987615 5.4607851-8.5611949 9.601-11.501zm-35.225-3.834c3.977.1 7.21 1.891 10.115 3.828 4.1423109 2.94098434 7.4518672 6.9051478 9.606 11.506-7.935-7.253-18.511-10-23.3-10.915.88834708-1.69563649 2.10492657-3.19775015 3.579-4.419zm-4.416 6.3c4.906.887 17.749 4.029 25.6 13.442-2.174 1.28-7.84 4.258-13.514 4.258-3.4020982.0979146-6.71286095-1.1088287-9.254-3.373-.03159602-.0296954-.06499269-.0574146-.1-.083-2.41079818-2.3575964-3.73173542-5.6121162-3.646-8.983-.00676278-1.79374345.30263536-3.57464459.914-5.261zm12.44 44.73c1.746-4.163 2.646-7.209 2.646-9.03 0-2.626-2.579-9.9-4.989-16.122.6602307.0774512 1.3242529.1181805 1.989.122 1.5800212-.0128551 3.1539522-.1976093 4.694-.551 3.327 8.494 5.306 14.657 5.306 16.551 0 1.943-1.462 6.22-3.931 11.534-1.979-.795-3.957-1.678-5.715-2.502zm-2.354-9.03c-.083754-1.5088712-.5267116-2.9759111-1.292-4.279-.47-1.015-1.054-2.279-1.779-4.092-.989-2.475-2.216-6.669-3.072-9.753 1.20135366.7026912 2.49480176 1.2344757 3.843 1.58 3.321 8.481 5.3 14.651 5.3 16.544 0 1.5-.873 4.391-2.453 8.171-.923-.447-1.739-.854-2.392-1.184-.1306819-.0700593-.22352785-.1945072-.25346104-.3397314-.02993319-.1452243.00613432-.2962434.09846104-.4122686 1.3638626-1.7864855 2.0702053-3.9885087 2-6.235zm9.939 12.255c1.695-3.655 4.061-9.297 4.061-12.255 0-2.747-2.821-10.577-5.355-17.056 2.9319786-.8967067 5.7391362-2.1596756 8.355-3.759 2.6158638 1.5993244 5.4230214 2.8622933 8.355 3.759-2.534 6.479-5.355 14.309-5.355 17.056 0 2.958 2.366 8.595 4.061 12.255-2.2489915.9441395-4.6311133 1.5328384-7.061 1.745-2.4298494-.2123862-4.811937-.8010766-7.061-1.745zm25.353-16.534c-.7652884 1.3030889-1.208246 2.7701288-1.292 4.279-.0700262 2.2467734.6362856 4.4490537 2 6.236.0916464.1165075.1268726.2676738.0961696.4126924-.030703.1450185-.1241698.2689382-.2551696.3383076-.652.331-1.468.737-2.391 1.185-1.577-3.781-2.45-6.672-2.45-8.172 0-1.892 1.978-8.061 5.3-16.544 1.3483235-.3456284 2.6420429-.8770495 3.844-1.579-.856 3.082-2.082 7.274-3.072 9.751-.725 1.814-1.31 3.078-1.78 4.093z" fill="#666666" data-original="#000000" style="" class=""/></g></g></g></svg>
