<svg xmlns="http://www.w3.org/2000/svg" viewBox="0 0 103.99 9.41"><defs><style>.cls-1{fill:#1d1d1b;}</style></defs><g id="Warstwa_2" data-name="Warstwa 2"><g id="Warstwa_1-2" data-name="Warstwa 1"><path class="cls-1" d="M4.43,7.23H7.69V8H4.43Z" transform="translate(-4.43 -1.31)"/><path class="cls-1" d="M18.29,10.72a5.68,5.68,0,0,1-4-1.3,4.52,4.52,0,0,1-1.45-3.55,4.43,4.43,0,0,1,.28-1.53A4.44,4.44,0,0,1,14.23,2.6,5,5,0,0,1,17.9,1.31a9.25,9.25,0,0,1,1.74.15q.84.15,1.23.18c.11,0,.16.05.16.13A1.47,1.47,0,0,1,21,2c0,.13,0,.27,0,.44,0,.35,0,.77,0,1.24,0,.17-.05.25-.11.25s-.1-.08-.1-.25a1.52,1.52,0,0,0-.5-1.23,3.67,3.67,0,0,0-2.4-.68A3.83,3.83,0,0,0,15,2.65,4.16,4.16,0,0,0,14,5.78a4.34,4.34,0,0,0,1.2,3.06,4.12,4.12,0,0,0,3.13,1.33,2.85,2.85,0,0,0,2.09-.6,1.86,1.86,0,0,0,.44-1q0-.18.12-.18t.09.18c0,.07,0,.28-.09.65a6.82,6.82,0,0,1-.17.88.55.55,0,0,1-.32.36A6.28,6.28,0,0,1,18.29,10.72Z" transform="translate(-4.43 -1.31)"/><path class="cls-1" d="M26.44,6a4.71,4.71,0,0,1,1.13-3.08,4.42,4.42,0,0,1,3.6-1.62,4.79,4.79,0,0,1,3.37,1.2,4.27,4.27,0,0,1,1.34,3.3,4.86,4.86,0,0,1-1.3,3.46,4.56,4.56,0,0,1-3.48,1.45,4.37,4.37,0,0,1-3.57-1.55A4.78,4.78,0,0,1,26.44,6Zm1.14-.34A4.9,4.9,0,0,0,28.7,9a3.43,3.43,0,0,0,2.72,1.25,3.06,3.06,0,0,0,2.06-.75,4.19,4.19,0,0,0,1.25-3.37,4.74,4.74,0,0,0-1.11-3.3,3.53,3.53,0,0,0-5-.14A4.11,4.11,0,0,0,27.58,5.67Z" transform="translate(-4.43 -1.31)"/><path class="cls-1" d="M42,6.71V5c0-1.46,0-2.33,0-2.59a.65.65,0,0,0-.52-.68,1.54,1.54,0,0,0-.4,0c-.07,0-.1,0-.1-.07s.06-.1.19-.1l1.38,0,.5,0,.69,0c.13,0,.19,0,.19.1s0,.07-.08.07l-.31,0c-.28,0-.42.26-.45.68,0,.26,0,1.13,0,2.59V6.64a4,4,0,0,0,.9,3,2.52,2.52,0,0,0,1.81.66,2.32,2.32,0,0,0,1.88-.86,4.73,4.73,0,0,0,.7-2.95V5c0-1.46,0-2.33,0-2.59a.66.66,0,0,0-.52-.68,1.62,1.62,0,0,0-.41,0c-.06,0-.09,0-.09-.07s.06-.1.19-.1l.81,0,.46,0,.4,0,.61,0c.13,0,.19,0,.19.1s0,.07-.11.07a1.23,1.23,0,0,0-.29,0c-.27.05-.42.28-.44.68s0,1.13,0,2.59V6.25C49.1,8,48.73,9.18,48,9.83a3.54,3.54,0,0,1-2.47.89,3.43,3.43,0,0,1-2.47-.85A4.18,4.18,0,0,1,42,6.71Z" transform="translate(-4.43 -1.31)"/><path class="cls-1" d="M59.12,2V7.07q0,2.09.06,2.61c0,.4.2.62.46.66a5.07,5.07,0,0,0,.54.05c.07,0,.1,0,.1.07s-.06.09-.19.09h-1l-.51,0-.47,0h-.7c-.13,0-.2,0-.2-.09s0-.07.12-.07a2.11,2.11,0,0,0,.34-.05c.18,0,.3-.26.35-.66s.06-1.18.06-2.61V2L56.33,2a6.42,6.42,0,0,0-.67,0,.84.84,0,0,0-.55.34L55,2.69q-.1.21-.18.21s-.06,0-.06-.11A5.6,5.6,0,0,1,55,1.54c0-.15.08-.23.12-.23l.18.07a1.2,1.2,0,0,0,.35.08c.44,0,.76.06.94.06h4.5a4.25,4.25,0,0,0,.6-.06c.27,0,.46-.05.59-.05s.06.05.06.14,0,.38,0,.74,0,.55,0,.57,0,.16-.09.16-.08-.07-.09-.21l0-.13Q62,2.05,60.63,2Z" transform="translate(-4.43 -1.31)"/><path class="cls-1" d="M68.06,6.71V5c0-1.46,0-2.33,0-2.59a.64.64,0,0,0-.51-.68,1.68,1.68,0,0,0-.41,0c-.07,0-.1,0-.1-.07s.07-.1.19-.1l1.38,0,.5,0,.69,0c.13,0,.19,0,.19.1s0,.07-.07.07l-.32,0c-.27,0-.42.26-.45.68,0,.26,0,1.13,0,2.59V6.64a4,4,0,0,0,.9,3,2.52,2.52,0,0,0,1.81.66,2.31,2.31,0,0,0,1.88-.86,4.73,4.73,0,0,0,.7-2.95V5c0-1.46,0-2.33,0-2.59a.66.66,0,0,0-.52-.68,1.62,1.62,0,0,0-.41,0c-.06,0-.09,0-.09-.07s.06-.1.19-.1l.81,0,.46,0,.4,0,.61,0c.13,0,.19,0,.19.1s0,.07-.11.07a1.16,1.16,0,0,0-.28,0c-.28.05-.42.28-.45.68s0,1.13,0,2.59V6.25c0,1.73-.37,2.93-1.11,3.58a3.52,3.52,0,0,1-2.47.89,3.43,3.43,0,0,1-2.47-.85A4.18,4.18,0,0,1,68.06,6.71Z" transform="translate(-4.43 -1.31)"/><path class="cls-1" d="M82.6,7.07V5c0-1.46,0-2.33,0-2.59a.66.66,0,0,0-.52-.68,1.62,1.62,0,0,0-.41,0c-.06,0-.09,0-.09-.07s.06-.1.19-.1l.86,0,.49,0,.62,0,.8,0a3.78,3.78,0,0,1,2.2.53,1.9,1.9,0,0,1,.82,1.63,3.81,3.81,0,0,1-1.45,2.77l1.36,1.73a16.88,16.88,0,0,0,1.14,1.35,2.59,2.59,0,0,0,1.46.86,3.57,3.57,0,0,0,.47,0c.07,0,.11,0,.11.07s-.1.09-.29.09h-.85a2.85,2.85,0,0,1-1.29-.22,2.62,2.62,0,0,1-.74-.65c-.14-.15-.43-.53-.88-1.12s-.78-1.08-1.3-1.77a.23.23,0,0,0-.16-.08H83.64s-.08,0-.08.1V7.1q0,2.06.06,2.58c0,.4.2.62.47.66a4.66,4.66,0,0,0,.54.05c.06,0,.09,0,.09.07s-.06.09-.19.09h-1l-.51,0-1.13,0c-.13,0-.19,0-.19-.09s0-.07.11-.07a2,2,0,0,0,.34-.05c.19,0,.3-.26.35-.66S82.6,8.5,82.6,7.07Zm1-5V6a.16.16,0,0,0,.08.14,2.77,2.77,0,0,0,1.26.19,1.5,1.5,0,0,0,.9-.23,2.07,2.07,0,0,0,.74-1.84A2.61,2.61,0,0,0,86,2.5a1.93,1.93,0,0,0-1.52-.63,3,3,0,0,0-.8.07A.13.13,0,0,0,83.56,2.08Z" transform="translate(-4.43 -1.31)"/><path class="cls-1" d="M95.55,7.07V5c0-1.46,0-2.33,0-2.59A.64.64,0,0,0,95,1.69a1.62,1.62,0,0,0-.41,0c-.06,0-.1,0-.1-.07s.07-.1.2-.1l.86,0,.49,0H98.8a3,3,0,0,0,.52-.06l.07,0,.09,0s0,0,0,.1a1.62,1.62,0,0,1,0,.21,1.93,1.93,0,0,0-.06.36c0,.21,0,.48-.06.79,0,.09,0,.13-.09.13s-.09,0-.09-.15a1.12,1.12,0,0,0-.08-.44C99,2.18,98.74,2,98.27,2c-.21,0-.76,0-1.64,0,0,0-.07,0-.07.12V5.38c0,.08,0,.12.07.12,1.09,0,1.72,0,1.91,0a1,1,0,0,0,.57-.18c.09-.1.15-.15.17-.15s.06,0,.06.1a1.45,1.45,0,0,1,0,.22l-.06.45c0,.34,0,.59,0,.75s0,.25-.09.25-.08,0-.08-.11a1.5,1.5,0,0,0,0-.4c-.07-.24-.28-.38-.62-.42s-1-.06-1.72-.06c-.06,0-.08,0-.08.09V9.13a1,1,0,0,0,.27.8,2.17,2.17,0,0,0,1.12.18A3.33,3.33,0,0,0,99.1,10a1.05,1.05,0,0,0,.54-.87c0-.12.06-.18.11-.18s.07.06.07.18a4.5,4.5,0,0,1-.16,1.17c0,.15-.09.24-.16.27a1.69,1.69,0,0,1-.48,0c-.73,0-1.41,0-2,0l-.93,0c-.13,0-.32,0-.59,0h-.58c-.13,0-.2,0-.2-.09s0-.07.12-.07a2.11,2.11,0,0,0,.34-.05c.18,0,.3-.26.35-.66S95.55,8.5,95.55,7.07Z" transform="translate(-4.43 -1.31)"/><path class="cls-1" d="M105.16,7.23h3.26V8h-3.26Z" transform="translate(-4.43 -1.31)"/></g></g></svg>