<svg id="Warstwa_1" data-name="Warstwa 1" xmlns="http://www.w3.org/2000/svg" viewBox="0 0 73.74 9.41"><path d="M161.54,133.28h3q.36,0,.36.12c0,.09-.14.16-.42.2l-2.86.45a2.28,2.28,0,0,0-.29.11l-.2.07q-.1,0-.06-.18l.18-.67C161.29,133.31,161.38,133.28,161.54,133.28Z" transform="translate(-161.08 -129)"/><path d="M171.52,138.41a5.73,5.73,0,0,1-4-1.31,4.53,4.53,0,0,1-1.44-3.54,4.44,4.44,0,0,1,.28-1.54,4.32,4.32,0,0,1,1.07-1.74,5,5,0,0,1,3.67-1.28,10.22,10.22,0,0,1,1.74.14,8.76,8.76,0,0,0,1.23.18c.1,0,.16.05.16.13a1.3,1.3,0,0,1,0,.23c0,.13,0,.28-.05.44,0,.36,0,.77,0,1.24,0,.17,0,.25-.11.25s-.1-.08-.1-.25a1.53,1.53,0,0,0-.5-1.22,3.62,3.62,0,0,0-2.4-.69,3.87,3.87,0,0,0-2.76.88,4.17,4.17,0,0,0-1.08,3.13,4.31,4.31,0,0,0,1.2,3.06,4.12,4.12,0,0,0,3.13,1.33,2.87,2.87,0,0,0,2.09-.6,1.94,1.94,0,0,0,.44-1c0-.13.07-.19.12-.19s.09.06.09.19,0,.28-.09.64a7.48,7.48,0,0,1-.17.89.51.51,0,0,1-.32.35A6.23,6.23,0,0,1,171.52,138.41Z" transform="translate(-161.08 -129)"/><path d="M175.77,133.69a4.63,4.63,0,0,1,1.13-3.07,4.4,4.4,0,0,1,3.6-1.62,4.79,4.79,0,0,1,3.37,1.2,4.27,4.27,0,0,1,1.34,3.3A4.8,4.8,0,0,1,183.9,137a4.54,4.54,0,0,1-3.48,1.46,4.38,4.38,0,0,1-3.56-1.55A4.81,4.81,0,0,1,175.77,133.69Zm1.14-.34A4.92,4.92,0,0,0,178,136.7a3.45,3.45,0,0,0,2.73,1.25,3.1,3.1,0,0,0,2.06-.74,4.25,4.25,0,0,0,1.25-3.38,4.73,4.73,0,0,0-1.12-3.3,3.27,3.27,0,0,0-2.53-1.12,3.32,3.32,0,0,0-2.51,1A4.15,4.15,0,0,0,176.91,133.35Z" transform="translate(-161.08 -129)"/><path d="M187.43,134.4v-1.75c0-1.47,0-2.33,0-2.6a.66.66,0,0,0-.52-.68,2.27,2.27,0,0,0-.41,0c-.06,0-.09,0-.09-.07s.06-.09.19-.09l1.38,0,.5,0h.69c.13,0,.19,0,.19.09s0,.07-.08.07l-.32,0c-.27,0-.42.27-.44.68s0,1.13,0,2.6v1.68a4,4,0,0,0,.9,3,2.5,2.5,0,0,0,1.81.66,2.32,2.32,0,0,0,1.88-.86,4.76,4.76,0,0,0,.7-2.94v-1.5c0-1.47,0-2.33,0-2.6a.64.64,0,0,0-.51-.68,2.27,2.27,0,0,0-.41,0c-.06,0-.1,0-.1-.07s.07-.09.2-.09h.81l.46,0,.4,0h.61c.12,0,.19,0,.19.09s0,.07-.11.07l-.29,0c-.27.06-.42.28-.44.68s0,1.13,0,2.6v1.28c0,1.74-.36,2.93-1.1,3.59a3.58,3.58,0,0,1-2.47.89,3.44,3.44,0,0,1-2.47-.86A4.16,4.16,0,0,1,187.43,134.4Z" transform="translate(-161.08 -129)"/><path d="M200.64,129.68v5.08c0,1.38,0,2.25.06,2.6s.21.62.47.66a4.66,4.66,0,0,0,.54,0c.07,0,.1,0,.1.07s-.07.1-.19.1l-1,0-.51,0-.47,0-.71,0c-.12,0-.19,0-.19-.1s0-.07.12-.07a2.11,2.11,0,0,0,.34,0c.18,0,.3-.26.35-.66s.06-1.18.06-2.6v-5.08l-1.78,0a4.7,4.7,0,0,0-.67,0,.84.84,0,0,0-.55.34l-.15.29c-.07.13-.13.2-.18.2s-.06,0-.06-.11a5.55,5.55,0,0,1,.27-1.24c0-.16.08-.23.12-.23l.18.06a.94.94,0,0,0,.34.08c.45,0,.77.06,1,.06h4.5a5.93,5.93,0,0,0,.6,0,4.43,4.43,0,0,1,.59-.06s.06,0,.06.15,0,.38,0,.73,0,.55,0,.58,0,.15-.08.15-.08-.07-.1-.2v-.13q-.06-.65-1.47-.66Z" transform="translate(-161.08 -129)"/><path d="M205.68,134.4v-1.75c0-1.47,0-2.33,0-2.6a.65.65,0,0,0-.52-.68,2.15,2.15,0,0,0-.4,0c-.07,0-.1,0-.1-.07s.06-.09.19-.09l1.38,0,.5,0h.69c.13,0,.19,0,.19.09s0,.07-.08.07l-.31,0c-.28,0-.42.27-.45.68s0,1.13,0,2.6v1.68a4,4,0,0,0,.9,3,2.52,2.52,0,0,0,1.81.66,2.32,2.32,0,0,0,1.88-.86,4.7,4.7,0,0,0,.7-2.94v-1.5c0-1.47,0-2.33,0-2.6a.66.66,0,0,0-.52-.68,2.27,2.27,0,0,0-.41,0c-.06,0-.09,0-.09-.07s.06-.09.19-.09H212l.46,0,.4,0h.61c.13,0,.19,0,.19.09s0,.07-.11.07l-.29,0c-.27.06-.42.28-.44.68s0,1.13,0,2.6v1.28c0,1.74-.37,2.93-1.11,3.59a3.58,3.58,0,0,1-2.47.89,3.44,3.44,0,0,1-2.47-.86A4.16,4.16,0,0,1,205.68,134.4Z" transform="translate(-161.08 -129)"/><path d="M216.33,134.76v-2.11c0-1.47,0-2.33,0-2.6a.64.64,0,0,0-.51-.68,2.27,2.27,0,0,0-.41,0c-.06,0-.1,0-.1-.07s.07-.09.2-.09h.86l.49,0,.62,0h.8a3.75,3.75,0,0,1,2.19.52,1.9,1.9,0,0,1,.83,1.64,3.83,3.83,0,0,1-1.45,2.77l1.36,1.73c.45.57.83,1,1.14,1.34a2.53,2.53,0,0,0,1.46.86,2.42,2.42,0,0,0,.47,0c.07,0,.11,0,.11.07s-.1.1-.29.1h-.85a2.83,2.83,0,0,1-1.29-.23,2.62,2.62,0,0,1-.74-.65c-.14-.15-.43-.52-.88-1.11s-.79-1.08-1.31-1.78a.19.19,0,0,0-.15-.07h-1.48c-.05,0-.08,0-.08.09v.29c0,1.37,0,2.24.06,2.59s.2.61.47.65a4.66,4.66,0,0,0,.54,0c.06,0,.09,0,.09.07s-.06.1-.19.1l-1,0-.51,0c-.55,0-.92,0-1.12,0s-.2,0-.2-.1,0-.07.12-.07a2.11,2.11,0,0,0,.34,0c.18,0,.3-.26.35-.66S216.33,136.18,216.33,134.76Zm1-5v3.92a.16.16,0,0,0,.08.14,2.74,2.74,0,0,0,1.26.2,1.58,1.58,0,0,0,.9-.23,2.09,2.09,0,0,0,.73-1.85,2.58,2.58,0,0,0-.55-1.76,1.91,1.91,0,0,0-1.52-.64,3.09,3.09,0,0,0-.81.07A.15.15,0,0,0,217.29,129.77Z" transform="translate(-161.08 -129)"/><path d="M225.38,134.76v-2.11c0-1.47,0-2.33,0-2.6a.64.64,0,0,0-.51-.68,2.37,2.37,0,0,0-.41,0c-.07,0-.1,0-.1-.07s.07-.09.19-.09h.87l.49,0h2.75a2.85,2.85,0,0,0,.51-.06l.08,0,.09,0s.05,0,.05.11a1,1,0,0,1,0,.2l-.06.36a6.28,6.28,0,0,1-.06.79c0,.09,0,.14-.08.14s-.1-.06-.1-.16a1,1,0,0,0-.07-.43c-.09-.22-.38-.35-.85-.41-.22,0-.76,0-1.64,0-.05,0-.08,0-.08.12v3.31c0,.09,0,.13.08.13,1.08,0,1.72,0,1.9,0a.87.87,0,0,0,.58-.18c.09-.09.14-.14.17-.14s.06,0,.06.09a1.45,1.45,0,0,1,0,.22l-.06.45c0,.34,0,.59,0,.75s0,.25-.08.25-.08,0-.08-.11a1.37,1.37,0,0,0-.05-.39q-.1-.36-.63-.42t-1.71-.06c-.06,0-.09,0-.09.08v3.11a1,1,0,0,0,.27.8,2.24,2.24,0,0,0,1.13.18,3.33,3.33,0,0,0,1.15-.13,1,1,0,0,0,.54-.86c0-.12.06-.18.11-.18s.07.06.07.18a4.43,4.43,0,0,1-.16,1.16c0,.15-.09.24-.17.27a1.6,1.6,0,0,1-.48,0c-.72,0-1.4,0-2,0l-.93,0-.59,0-.59,0c-.12,0-.19,0-.19-.1s0-.07.12-.07a2.11,2.11,0,0,0,.34,0c.18,0,.3-.26.35-.66S225.38,136.18,225.38,134.76Z" transform="translate(-161.08 -129)"/><path d="M231.44,133.28h3q.36,0,.36.12c0,.09-.14.16-.42.2l-2.86.45a2.28,2.28,0,0,0-.29.11l-.2.07q-.11,0-.06-.18l.18-.67C231.19,133.31,231.28,133.28,231.44,133.28Z" transform="translate(-161.08 -129)"/></svg>