<svg xmlns="http://www.w3.org/2000/svg" viewBox="0 0 152.05 24.87"><defs><style>.cls-1{isolation:isolate;}.cls-2{fill:#fff;}.cls-3{opacity:0.74;mix-blend-mode:multiply;}</style></defs><g class="cls-1"><g id="Warstwa_2" data-name="Warstwa 2"><g id="Warstwa_1-2" data-name="Warstwa 1"><path class="cls-2" d="M15,20.3H7.91L5.74,26H1.79l10-23.81L21.24,26H17.16ZM8.42,18.89h6.06l-2.87-7.65h-.26Z" transform="translate(-1.79 -2.18)"/><path class="cls-2" d="M31.44,26h-4V3.05a34.13,34.13,0,0,1,7.21.76,15.27,15.27,0,0,1,4.72,1.86,7.26,7.26,0,0,1,2.58,2.67,6.89,6.89,0,0,1,.8,3.22,5.89,5.89,0,0,1-2.17,4.67,19,19,0,0,1-6.31,3.28c1.1.76,2.26,1.48,3.47,2.16s2.43,1.3,3.64,1.87S43.75,24.6,44.9,25a30.14,30.14,0,0,0,3.19,1h-6.7a13.84,13.84,0,0,1-2.33-.87c-.83-.39-1.68-.84-2.55-1.36s-1.74-1.07-2.61-1.67-1.67-1.19-2.39-1.79c0,0,0,0-.07,0Zm0-7.36a15.81,15.81,0,0,0,5.49-2.82,5.08,5.08,0,0,0,1.78-4,6.86,6.86,0,0,0-.41-2.31A5.73,5.73,0,0,0,37,7.48a7.67,7.67,0,0,0-2.26-1.56A11,11,0,0,0,31.44,5Z" transform="translate(-1.79 -2.18)"/><path class="cls-2" d="M51.85,26V3.23h4.08V26Z" transform="translate(-1.79 -2.18)"/><path class="cls-2" d="M100.32,20.3H93.24L91.07,26H87.12L97.07,2.18,106.57,26h-4.08Zm-6.57-1.41h6.06l-2.87-7.65h-.25Z" transform="translate(-1.79 -2.18)"/><path class="cls-2" d="M116.9,12.38h-.25V26h-3.89V2.18l12.12,15.46h.25V3.23h3.76V27.05Z" transform="translate(-1.79 -2.18)"/><path class="cls-2" d="M141.84,12.38h-.25V26H137.7V2.18l12.11,15.46h.26V3.23h3.76V27.05Z" transform="translate(-1.79 -2.18)"/><g class="cls-3"><path class="cls-2" d="M73.55,24.15C68,22.55,64,19.61,62,16.15a10.49,10.49,0,0,1-1.53-5.36,24.52,24.52,0,0,1,6.74,3.07A15.61,15.61,0,0,1,72,18.78h0A10.4,10.4,0,0,1,73.55,24.15Z" transform="translate(-1.79 -2.18)"/></g><g class="cls-3"><path class="cls-2" d="M87,10.79a10.49,10.49,0,0,1-1.76,5.71c-2.15,3.37-6.21,6.19-11.66,7.65a10.52,10.52,0,0,1,1.76-5.73h0A15.74,15.74,0,0,1,79.76,14,23.88,23.88,0,0,1,87,10.79Z" transform="translate(-1.79 -2.18)"/></g><g class="cls-3"><path class="cls-2" d="M73.55,24.15c-5.65-1.65-9.78-4.69-11.88-8.27a10.84,10.84,0,0,1-1.57-5.53A24.79,24.79,0,0,1,67,13.52a16,16,0,0,1,5,5.08h0A10.79,10.79,0,0,1,73.55,24.15Z" transform="translate(-1.79 -2.18)"/></g><g class="cls-3"><path class="cls-2" d="M87,10.79a10.49,10.49,0,0,1-1.76,5.71c-2.15,3.37-6.21,6.19-11.66,7.65a10.52,10.52,0,0,1,1.76-5.73h0A15.74,15.74,0,0,1,79.76,14,23.88,23.88,0,0,1,87,10.79Z" transform="translate(-1.79 -2.18)"/></g><g class="cls-3"><path class="cls-2" d="M73.55,24.15C68,22.55,64,19.61,62,16.15a10.49,10.49,0,0,1-1.53-5.36,24.52,24.52,0,0,1,6.74,3.07A15.61,15.61,0,0,1,72,18.78h0A10.4,10.4,0,0,1,73.55,24.15Z" transform="translate(-1.79 -2.18)"/></g><g class="cls-3"><path class="cls-2" d="M87.33,10.35a10.9,10.9,0,0,1-1.8,5.9c-2.22,3.48-6.38,6.39-12,7.9a11,11,0,0,1,1.8-5.92h0a16.33,16.33,0,0,1,4.58-4.57A24.55,24.55,0,0,1,87.33,10.35Z" transform="translate(-1.79 -2.18)"/></g><g class="cls-3"><path class="cls-2" d="M73.55,24.15c-7.19-5.61-7.19-14.7,0-20.3C80.75,9.45,80.75,18.54,73.55,24.15Z" transform="translate(-1.79 -2.18)"/></g><g class="cls-3"><path class="cls-2" d="M73.55,24.15c-7.19-5.61-7.19-14.7,0-20.3C80.75,9.45,80.75,18.54,73.55,24.15Z" transform="translate(-1.79 -2.18)"/></g><g class="cls-3"><path class="cls-2" d="M73.55,24.15c-6.9-5.38-6.92-14.08-.06-19.43C80.39,10.1,80.42,18.79,73.55,24.15Z" transform="translate(-1.79 -2.18)"/></g><g class="cls-3"><path class="cls-2" d="M84.74,11.18a11.43,11.43,0,0,1-1.47,5.55,16.5,16.5,0,0,1-9.76,7.42A11.38,11.38,0,0,1,72.26,19h0a11.36,11.36,0,0,1,1.47-5.53,14.21,14.21,0,0,1,3.74-4.32,18.71,18.71,0,0,1,6-3.1A11.3,11.3,0,0,1,84.74,11.18Z" transform="translate(-1.79 -2.18)"/></g><g class="cls-3"><path class="cls-2" d="M84.74,11.18a11.43,11.43,0,0,1-1.47,5.55,16.5,16.5,0,0,1-9.76,7.42A11.38,11.38,0,0,1,72.26,19h0a11.36,11.36,0,0,1,1.47-5.53,14.21,14.21,0,0,1,3.74-4.32,18.71,18.71,0,0,1,6-3.1A11.3,11.3,0,0,1,84.74,11.18Z" transform="translate(-1.79 -2.18)"/></g><g class="cls-3"><path class="cls-2" d="M84.34,11.65A11,11,0,0,1,82.92,17a16,16,0,0,1-9.45,7.15,10.86,10.86,0,0,1-1.21-5h0a11,11,0,0,1,1.42-5.32A13.9,13.9,0,0,1,77.3,9.71a18.23,18.23,0,0,1,5.83-3A10.87,10.87,0,0,1,84.34,11.65Z" transform="translate(-1.79 -2.18)"/></g><g class="cls-3"><path class="cls-2" d="M75.08,18.66h0a11.26,11.26,0,0,1-1.46,5.48,16,16,0,0,1-9.38-7.56A11.18,11.18,0,0,1,63,11.52a11.07,11.07,0,0,1,1.45-5.46A18.34,18.34,0,0,1,69.91,9a14,14,0,0,1,3.93,4.67A11.27,11.27,0,0,1,75.08,18.66Z" transform="translate(-1.79 -2.18)"/></g><g class="cls-3"><path class="cls-2" d="M75.08,18.66h0a11.26,11.26,0,0,1-1.46,5.48,16,16,0,0,1-9.38-7.56A11.18,11.18,0,0,1,63,11.52a11.07,11.07,0,0,1,1.45-5.46A18.34,18.34,0,0,1,69.91,9a14,14,0,0,1,3.93,4.67A11.27,11.27,0,0,1,75.08,18.66Z" transform="translate(-1.79 -2.18)"/></g><g class="cls-3"><path class="cls-2" d="M75.08,18.86h0a10.81,10.81,0,0,1-1.41,5.28,15.44,15.44,0,0,1-9-7.29,10.59,10.59,0,0,1,.21-10.14A17.82,17.82,0,0,1,70.1,9.5,13.38,13.38,0,0,1,73.88,14,10.8,10.8,0,0,1,75.08,18.86Z" transform="translate(-1.79 -2.18)"/></g></g></g></g></svg>