<svg id="Warstwa_1" data-name="Warstwa 1" xmlns="http://www.w3.org/2000/svg" viewBox="0 0 140.89 37.05"><path d="M260.34,157.24c0,.37-.22.56-.66.56h-.4c-.86-.09-1.56-.14-2.11-.14q-6,0-14.25,5.27a46.15,46.15,0,0,0-6.68,5.18q-2.64,2.58-9.93,10.85-8.61,9.81-13,13a14.28,14.28,0,0,1-2.53,1.68c-.09,0-.14,0-.14-.13s.17-.25.52-.72A53.32,53.32,0,0,0,218.3,180q3-7.36,3-12.29,0-7.92-6.43-7.92a12.84,12.84,0,0,0-5.83,1.73,24.34,24.34,0,0,0-6,4.5,25,25,0,0,0-4.73,6.74,16.24,16.24,0,0,0-1.77,7,6.49,6.49,0,0,0,1.57,4.59,5.51,5.51,0,0,0,4.25,1.69q5.19,0,10.12-6.66,3.51-4.76,3.52-8.5a4,4,0,0,0-.84-2.69,2.76,2.76,0,0,0-2.23-1,3.79,3.79,0,0,0-1.59.36c-.52.24-.78.49-.78.74,0,.09.05.14.16.14h.19l.73-.1c.7,0,1,.39,1,1.15a1.68,1.68,0,0,1-.56,1.26,1.86,1.86,0,0,1-1.31.52,1.31,1.31,0,0,1-1.46-1.5,2.73,2.73,0,0,1,1.06-2.12,3.74,3.74,0,0,1,2.51-.9,3.19,3.19,0,0,1,2.53,1.11,4.34,4.34,0,0,1,1,2.92q0,4.59-4.54,10.08t-9.56,5.58a6.52,6.52,0,0,1-5.06-2.16,8,8,0,0,1-2-5.58q0-6.51,6.54-12.88T215,159.44a8.19,8.19,0,0,1,6.41,2.76,10.42,10.42,0,0,1,2.46,7.23,22.12,22.12,0,0,1-2.7,10.06,65.56,65.56,0,0,1-8.69,12.26,1.32,1.32,0,0,0-.24.33l0,.07c.27,0,1.24-.73,2.93-2.18a44.15,44.15,0,0,0,4-3.92q1.88-2,9.89-11.16a89.64,89.64,0,0,1,8.35-8.5,51.78,51.78,0,0,1,8.08-5.66q7.29-4.17,12.85-4.17C259.7,156.56,260.34,156.79,260.34,157.24Z" transform="translate(-195.25 -156.56)"/><path d="M240.19,183.27a2.85,2.85,0,0,1-.42.6l-1,1.27q-4.86,6-8.33,6a3.65,3.65,0,0,1-2.75-1.18,4.14,4.14,0,0,1-1.12-3q0-4.22,5.89-7.43a11.38,11.38,0,0,1,5-1.69,2.15,2.15,0,0,1,1.44.51,1.52,1.52,0,0,1,.59,1.23c0,1.12-.73,2.08-2.2,2.87a28.47,28.47,0,0,1-7.36,2.21,7.91,7.91,0,0,0-1.59,4c0,1.35.73,2,2.18,2q3.7,0,9.08-7.23c.19-.25.34-.38.47-.38A.14.14,0,0,1,240.19,183.27Zm-2-4.35c0-.5-.27-.75-.82-.75-.83,0-1.92.57-3.27,1.72a24.37,24.37,0,0,0-4,4.47,18.42,18.42,0,0,0,5.72-2.45C237.43,180.85,238.21,179.86,238.21,178.92Z" transform="translate(-195.25 -156.56)"/><path d="M253.55,183.24a8.28,8.28,0,0,1-1.41,1.72c-1.19,1.32-2.31,2-3.35,2s-1.79-.68-1.79-2.06a6.28,6.28,0,0,1,.28-1.66,16.45,16.45,0,0,0-2.4,2.55c-.62.85-1.68,2.56-3.2,5.16l-1.45-.1-1.43.1,3.84-6.24q2.88-4.68,2.88-5.81,0-.66-.54-.66-1.3,0-4.76,5.06c-.14.21-.27.32-.38.32s-.09-.06-.09-.14a.28.28,0,0,1,.09-.18l.42-.59q3.62-4.81,4.91-4.82c1.25,0,1.88.81,1.88,2.42q0,1.8-1.92,4.78a18.47,18.47,0,0,1,2.32-2.3,11.78,11.78,0,0,1,2.21-3.49,3.59,3.59,0,0,1,2.38-1.41c.48,0,.73.21.73.64q0,1.13-3.26,3.21l-1.55,1-.28.23a6.34,6.34,0,0,0-.33,1.78c0,1.32.5,2,1.48,2q1.83,0,4-3c.32-.35.51-.52.59-.52A.13.13,0,0,1,253.55,183.24Z" transform="translate(-195.25 -156.56)"/><path d="M279.59,183.24a2,2,0,0,1-.23.38l-1,1.38q-4.41,6.13-6.53,6.13a2.26,2.26,0,0,1-1.8-.82,3.13,3.13,0,0,1-.71-2.11,5.73,5.73,0,0,1,.89-2.84c.11-.18.68-1,1.72-2.5,1.31-1.88,2-3.11,2-3.68a.86.86,0,0,0-1-1q-3.09,0-10.61,12.71a7.17,7.17,0,0,0-1.29-.1,12.52,12.52,0,0,0-1.64.1l3.32-5.28c2.18-3.46,3.26-5.59,3.26-6.37s-.29-1.06-.87-1.06c-.85,0-2.26,1.24-4.21,3.71a63.61,63.61,0,0,0-5.82,9,8.51,8.51,0,0,0-1.38-.1,12,12,0,0,0-1.59.1l3.35-5.28q3.46-5.43,3.47-6.72c0-.47-.18-.71-.54-.71q-1.15,0-4.77,5c-.16.22-.28.33-.38.33a.13.13,0,0,1-.09-.14,20.56,20.56,0,0,1,2.16-2.92c1.41-1.77,2.5-2.65,3.26-2.65a1.58,1.58,0,0,1,1.29.72,2.72,2.72,0,0,1,.54,1.7,8.5,8.5,0,0,1-1.38,3.77q4.22-6.18,6.28-6.19a2,2,0,0,1,1.62.8,3.12,3.12,0,0,1,.63,2,7.05,7.05,0,0,1-1.24,3.4q4.45-6.18,6.68-6.19a2.1,2.1,0,0,1,1.7.87,3.28,3.28,0,0,1,.69,2.11,6.91,6.91,0,0,1-1.15,3.4s-.69,1-2,3a5.27,5.27,0,0,0-1.15,2.58.85.85,0,0,0,1,1q1.83,0,6.06-5.92l.72-1,.43-.51c.07-.16.15-.24.23-.24A.13.13,0,0,1,279.59,183.24Z" transform="translate(-195.25 -156.56)"/><path d="M287.65,183.24a2,2,0,0,1-.23.38l-1,1.38q-4.41,6.13-6.73,6.13a2.43,2.43,0,0,1-1.85-.79,2.74,2.74,0,0,1-.74-2,9.59,9.59,0,0,1,1.62-4.13l3.66-6.21a5.43,5.43,0,0,0,1.15.16,13.32,13.32,0,0,0,1.78-.16L280,186.79a6.43,6.43,0,0,0-1.15,2.93c0,.71.37,1.06,1.1,1.06q2.08,0,7.35-7.44c.08-.16.15-.24.23-.24A.12.12,0,0,1,287.65,183.24Zm-.34-9.69a2.2,2.2,0,0,1-.69,1.54,2.08,2.08,0,0,1-1.51.71.93.93,0,0,1-1.05-1.05,2.09,2.09,0,0,1,.72-1.49,2.17,2.17,0,0,1,1.53-.72A.89.89,0,0,1,287.31,173.55Z" transform="translate(-195.25 -156.56)"/><path d="M300,166.64Q290.15,183,288.52,185.9a10.78,10.78,0,0,0-1.63,3.82c0,.71.3,1.06.89,1.06q2,0,7.23-7.44c.08-.16.17-.24.28-.24a.12.12,0,0,1,.1.14c0,.1-.08.22-.24.38l-1,1.38c-2.95,4.09-5.14,6.13-6.54,6.13a2.06,2.06,0,0,1-1.66-.76,2.91,2.91,0,0,1-.64-1.94,5.5,5.5,0,0,1,.6-2.49c.39-.81,1.75-3.13,4.06-7q4.25-7.05,7.15-12.23a4.68,4.68,0,0,0,1.24.19A4.78,4.78,0,0,0,300,166.64Z" transform="translate(-195.25 -156.56)"/><path d="M303.4,183.24a2,2,0,0,1-.23.38l-1,1.38q-4.41,6.13-6.73,6.13a2.43,2.43,0,0,1-1.85-.79,2.74,2.74,0,0,1-.74-2,9.59,9.59,0,0,1,1.62-4.13l3.66-6.21a5.43,5.43,0,0,0,1.15.16,13.32,13.32,0,0,0,1.78-.16l-5.32,8.74a6.43,6.43,0,0,0-1.15,2.93c0,.71.37,1.06,1.1,1.06q2.08,0,7.35-7.44c.08-.16.15-.24.23-.24A.12.12,0,0,1,303.4,183.24Zm-.34-9.69a2.2,2.2,0,0,1-.69,1.54,2.08,2.08,0,0,1-1.51.71.93.93,0,0,1-1.05-1.05,2.09,2.09,0,0,1,.72-1.49,2.17,2.17,0,0,1,1.53-.72A.89.89,0,0,1,303.06,173.55Z" transform="translate(-195.25 -156.56)"/><path d="M317.33,183.22c0,.25-.47.83-1.39,1.75-1.37,1.37-2.64,2.06-3.8,2.06a3,3,0,0,1-1.29-.28q-3.09,4.38-5.81,4.38a3.08,3.08,0,0,1-2.41-1.16,4.14,4.14,0,0,1-1-2.78c0-2.4,1.58-4.73,4.74-7q3.33-2.37,5.48-2.37c1.35,0,2,.72,2,2.16q0,2.7-2.84,6.49a2,2,0,0,0,1.06.28,4.48,4.48,0,0,0,2.46-1,8.33,8.33,0,0,0,2.3-2.36c.18-.22.3-.33.38-.33A.09.09,0,0,1,317.33,183.22Zm-3.81-3.15c0-1.27-.57-1.9-1.71-1.9-1.43,0-3.16,1.36-5.21,4.08s-3.07,5-3.07,6.86c0,1.08.52,1.62,1.55,1.62q2.54,0,5.53-4.17a2.32,2.32,0,0,1-.68-1.55,4.07,4.07,0,0,1,.91-2.37,2.44,2.44,0,0,1,1.79-1.21c.25,0,.42.15.51.46A4.29,4.29,0,0,0,313.52,180.07Z" transform="translate(-195.25 -156.56)"/><path d="M336.15,183.24q0,.49-3.41,4.56-2.79,3.33-4.38,3.33a2.26,2.26,0,0,1-1.78-.82,3,3,0,0,1-.71-2,4.42,4.42,0,0,1,.43-1.95,34.39,34.39,0,0,1,2.26-3.58c1.27-1.87,1.9-3.07,1.9-3.58s-.33-1-1-1q-3.42,0-10.54,12.71c-.77-.06-1.23-.1-1.39-.1a12.45,12.45,0,0,0-1.54.1l3.65-5.79q3.12-5,3.12-6.21c0-.47-.2-.71-.59-.71-.79,0-2.37,1.69-4.72,5.06-.14.2-.25.31-.33.32s-.12,0-.14-.14a.35.35,0,0,1,.1-.18l.44-.59q3.6-4.81,4.84-4.82a1.7,1.7,0,0,1,1.36.73,2.7,2.7,0,0,1,.56,1.73,8.66,8.66,0,0,1-1.75,4.18,41,41,0,0,1,4.25-5.23,4.22,4.22,0,0,1,2.75-1.41,2.17,2.17,0,0,1,1.74.85,3.12,3.12,0,0,1,.7,2.08q0,1.58-2.15,4.81t-2.21,4.22a.85.85,0,0,0,1,1q2.08,0,7.2-7.44c.08-.16.16-.24.23-.24S336.15,183.15,336.15,183.24Z" transform="translate(-195.25 -156.56)"/></svg>