<?xml version="1.0" encoding="UTF-8" standalone="no"?>
<svg
   xmlns:dc="http://purl.org/dc/elements/1.1/"
   xmlns:cc="http://creativecommons.org/ns#"
   xmlns:rdf="http://www.w3.org/1999/02/22-rdf-syntax-ns#"
   xmlns:svg="http://www.w3.org/2000/svg"
   xmlns="http://www.w3.org/2000/svg"
   viewBox="0 0 793.70081 1122.5197"
   height="1122.5197"
   width="793.70081"
   xml:space="preserve"
   id="svg2"
   version="1.1"><metadata
     id="metadata8"><rdf:RDF><cc:Work
         rdf:about=""><dc:format>image/svg+xml</dc:format><dc:type
           rdf:resource="http://purl.org/dc/dcmitype/StillImage" /></cc:Work></rdf:RDF></metadata><defs
     id="defs6" /><g
     transform="matrix(1.3333333,0,0,-1.3333333,0,1122.5197)"
     id="g10"><path
       id="path12"
       style="fill:#2b2b2a;fill-opacity:1;fill-rule:evenodd;stroke:none"
       d="m 348.3573,396.2477 c -1.7751,0.2761 -2.2712,-0.5348 -2.9345,-1.6633 -1.1086,-1.8893 -0.4963,-2.177 0.0363,-3.7021 -0.5224,-0.4685 -0.5564,-0.7166 -0.9725,-1.1704 -1.0815,-1.1812 -2.5756,-2.7054 -4.2305,-2.9157 -5.745,-0.735 2.4673,13.6661 6.9871,12.8937 1.6419,-0.2812 1.2856,-1.9061 1.1141,-3.4422 z m -16.9345,15.2422 c -0.606,-1.4332 -9.2219,-15.9534 -10.0134,-17.0464 -0.8118,-1.1217 -1.4788,-1.9287 -2.3207,-3.0455 -0.8603,-1.141 -3.9331,-5.3587 -6.0426,-4.4836 -1.3867,1.0599 1.6475,5.3229 2.4939,6.6912 0.6956,1.127 3.4126,5.4343 3.7613,6.2784 l -3.102,-0.089 c -1.7161,-3.2567 -5.1335,-8.2695 -7.5376,-10.9465 -0.7699,-0.8564 -2.2048,-2.5138 -3.8744,-1.9046 -1.0805,2.952 5.2039,6.6872 4.1497,11.0809 -0.654,2.7204 -2.9447,2.3763 -4.7821,0.9255 -1.4198,-1.1234 -2.5585,-2.6439 -3.8024,-4.1658 0.379,1.1897 0.9015,2.3105 0.362,3.7327 -0.4238,1.1109 -1.5885,1.9984 -3.0696,1.362 -1.067,-0.4606 -2.9492,-2.6025 -3.6519,-3.5186 -0.4351,-0.5636 -0.6522,-0.9068 -1.0573,-1.2955 0.3316,1.3286 1.0202,2.4557 0.2381,3.9708 -1.8624,3.5983 -6.2011,-3.2281 -8.1879,-5.7427 -0.5797,-0.7328 -1.7492,-2.0979 -3.1082,-2.2672 -1.866,-0.2332 -2.2184,1.9217 -1.6288,3.4107 0.6378,1.6061 5.4729,2.5801 5.3144,5.5222 -3.7196,0.8937 -4.5567,-5.0378 -7.0171,-6.1932 0.4986,1.4678 1.4646,2.8007 1.0868,4.7223 -0.3433,1.7563 -2.1266,2.2501 -3.3154,0.6862 0.8294,0.3844 0.8076,0.688 1.6463,0.2784 0.4547,-1.3518 -2.3476,-5.5417 -3.0101,-6.6478 -0.8147,-1.3589 -3.4041,-5.1622 -3.7227,-6.2615 l 2.8879,0.0341 c 1.4601,1.7764 3.062,6.0063 5.6447,7.6033 -0.6132,-5.343 3.2048,-4.0651 6.0261,-0.5734 0.8629,1.0667 4.9034,7.137 6.0435,5.8453 0.6454,-1.8808 -5.8292,-10.9497 -6.8658,-12.865 l 3.02,0.0232 c 0.4655,0.5077 8.4498,14.997 10.8664,12.7568 1.7784,-1.6495 -5.1514,-9.6965 -6.2499,-12.8078 l 3.0912,0.0309 c 0.4606,1.5066 3.6972,6.1228 4.7387,7.5815 1.3456,1.8862 4.1879,5.9925 6.8743,5.3623 0.7852,-3.3517 -5.4366,-6.7768 -4.4487,-11.173 0.5017,-2.2349 2.5123,-2.6646 4.7786,-0.9516 1.0582,0.8016 2.9189,3.0589 3.7693,4.1595 -0.3827,-1.3711 -1.0761,-2.5477 -0.1925,-4.011 2.5818,-4.2786 8.4373,3.7058 8.6369,4.178 -0.7005,-2.1441 -0.773,-6.3726 2.6104,-5.2812 2.0855,0.6726 3.7035,3.651 5.118,4.7942 -0.3564,-1.5375 -0.7731,-2.8576 0.2358,-4.0875 0.8425,-1.0282 2.3329,-1.0662 3.6408,-0.3048 1.8329,1.0653 3.5952,3.5768 4.9782,5.1469 -0.2559,-1.3776 -0.2968,-2.922 0.4731,-4.036 0.6625,-0.9569 1.6186,-1.7339 3.1757,-1.6302 2.3034,0.1545 4.9393,2.9909 5.5839,4.43 3.6494,-0.3841 5.2759,1.2648 7.4719,4.3829 0.6409,0.9122 3.2221,3.5955 3.7584,4.5794 l -0.3038,-0.0184 -0.0185,-0.0218 -2.1883,-2.4296 c -0.0604,-0.0578 -0.341,-0.3748 -0.4283,-0.4785 -1.798,-2.1736 -4.1936,-6.5574 -7.7794,-5.7688 0.197,1.0412 4.0379,5.5718 2.4658,8.2525 -1.4434,2.4653 -6.5202,-0.9127 -7.7031,-1.76 -2.5237,-1.8065 -3.4778,-3.4399 -5.3144,-5.8765 -0.9539,-1.2668 -4.1712,-5.5817 -6.2535,-4.7129 -1.1665,1.6826 1.6719,5.3252 2.4851,6.7011 1.205,2.0375 2.8826,4.3242 3.7715,6.2646 l -3.1184,-0.0845 c -0.6006,-1.5613 -3.7134,-6.2266 -4.6905,-7.5158 -0.7375,-0.9726 -4.9759,-6.7354 -6.5001,-5.3532 -1.4363,1.3025 5.1395,11.2235 6.0494,12.7377 1.0375,1.7292 6.732,10.9999 7.0917,12.011 z" /><path
       id="path14"
       style="fill:#2b2b2a;fill-opacity:1;fill-rule:evenodd;stroke:none"
       d="m 243.7724,385.4186 c 0.5225,0.8467 1.3689,1.7348 2.1351,2.6537 0.7481,0.893 1.4632,1.857 2.1512,2.7729 4.2106,5.6058 9.1755,13.6366 7.2507,21.3389 -1.3047,5.2333 -5.7852,8.1343 -12.3565,6.579 -5.381,-1.2722 -9.3356,-5.2223 -11.8972,-8.0113 -11.1175,-12.1099 -2.2286,-24.4009 8.0223,-17.644 2.8392,1.8729 7.1671,6.8341 8.401,11.2898 3.0277,10.9233 -9.716,7.236 -6.3975,2.7386 1.4224,-0.4575 2.6158,0.005 2.9143,1.1866 0.5411,2.1435 -1.4717,1.3753 -2.0656,1.8677 2.0455,2.2913 8.6516,0.8277 3.7624,-8.7004 -6.406,-12.4809 -19.5426,-13.1201 -18.2746,-1.8527 1.7399,15.4463 26.9005,29.0302 25.4726,9.4261 -0.4937,-6.7709 -5.015,-16.9127 -9.0192,-22.5341 -0.6347,-0.8926 -1.4171,-1.8289 -1.8669,-2.6512 2.0562,-0.0626 10.5741,8.7015 11.817,10.1512 0.8201,0.9561 1.7578,1.8348 2.5501,2.8235 0.4462,0.5559 0.8371,0.8402 1.294,1.3808 0.565,0.6656 0.6446,0.8697 1.345,1.5667 l 7.8461,8.712 c 1.042,1.1733 1.6682,1.7359 2.8632,2.7278 15.505,12.8676 21.8838,8.6808 23.6943,9.9116 -0.0394,0.4847 0.4807,0.9893 -1.8329,1.0103 -9.11,0.0842 -20.7329,-8.2851 -26.4407,-14.6237 l -6.3681,-7.0577 c -0.4575,-0.5541 -0.8365,-0.8254 -1.2824,-1.3943 -0.5187,-0.6588 -0.5952,-0.739 -1.2585,-1.4247 -2.7805,-2.8749 -9.0278,-10.9111 -12.4592,-12.2431" /><path
       id="path16"
       style="fill:#2b2b2a;fill-opacity:1;fill-rule:evenodd;stroke:none"
       d="m 262.3816,393.529 c 1.0854,1.4627 2.0245,2.6825 3.3157,3.8387 0.4776,0.4283 3.4707,3.2939 4.604,2.075 1.8088,-1.942 -5.7211,-5.8224 -7.9197,-5.9137 z m 14.146,5.8054 c -0.0292,-0.0187 -0.2055,-0.1066 -0.2395,-0.1315 -0.4051,-0.2951 -1.1478,-1.0936 -1.4253,-1.3558 l -2.5974,-3.2488 c -0.9703,-1.3522 -1.9641,-2.5008 -3.041,-3.6666 -7.5537,-8.1791 -11.0548,-2.7278 -7.4695,1.656 0.8696,1.0635 7.1107,1.2242 9.477,3.9398 1.4919,1.7099 0.6183,3.6658 -1.7858,3.5589 -3.0725,-0.136 -7.2785,-3.0101 -8.727,-4.4546 -3.0405,-3.0342 -2.9948,-7.503 -0.0111,-8.9292 3.4183,-1.6319 7.5178,2.4543 8.7282,3.7885 1.277,1.4086 5.7041,6.842 6.8998,8.6531 0.008,0.0108 0.1862,0.18 0.1916,0.1902" /><path
       id="path18"
       style="fill:#2b2b2a;fill-opacity:1;fill-rule:evenodd;stroke:none"
       d="m 358.8446,394.6127 c 1.4108,0.7824 4.5638,5.5072 7.073,4.9218 0.8912,-3.2627 -7.761,-9.5782 -3.5218,-12.7029 3.4181,-2.5183 9.334,6.9548 9.6254,7.6561 -0.7475,-0.0751 -1.4539,-1.5259 -1.8375,-2.067 -0.6454,-0.9139 -1.1225,-1.5114 -1.866,-2.3803 -0.9068,-1.0567 -2.7859,-3.8177 -4.9357,-3.1081 -0.6724,2.2509 3.3942,6.2319 4.1417,9.0442 0.5366,2.0112 -0.4334,4.1301 -2.3598,4.1224 -1.7725,-0.008 -5.8927,-4.1868 -6.3193,-5.4862" /><path
       id="path20"
       style="fill:#2b2b2a;fill-opacity:1;fill-rule:evenodd;stroke:none"
       d="m 359.17,394.8279 c -0.008,0.1814 -0.3169,-0.3844 0.005,0.5215 0.4096,1.1512 1.1565,3.3574 -0.4119,4.4241 -0.8581,0.5836 -1.4023,0.2194 -2.1685,-0.0618 0.286,-0.3665 0.0187,-0.1347 0.3943,-0.1069 0.0187,0.002 0.0388,-0.004 0.0595,-0.005 l 1.0089,-0.0371 c 0.1422,-2.8539 -5.5766,-10.4516 -6.8891,-12.964 l 2.9962,-0.055 c 1.0026,1.7918 5.0244,7.8625 5.006,8.2846" /><path
       id="path22"
       style="fill:#2b2b2a;fill-opacity:1;fill-rule:evenodd;stroke:none"
       d="m 319.4476,405.3694 c -1.7904,-0.8915 -2.0818,-3.8211 0.3361,-3.0527 2.2255,0.7073 2.3012,4.3628 -0.3361,3.0527" /><path
       id="path24"
       style="fill:#2b2b2a;fill-opacity:1;fill-rule:evenodd;stroke:none"
       d="m 335.7771,405.3694 c -1.8604,-0.9287 -2.0058,-3.8166 0.3285,-3.0467 2.2612,0.7475 2.2612,4.3367 -0.3285,3.0467" /><path
       id="path26"
       style="fill:#2b2b2a;fill-opacity:1;fill-rule:evenodd;stroke:#2b2b2a;stroke-width:0.21600001;stroke-linecap:butt;stroke-linejoin:miter;stroke-miterlimit:22.92558479;stroke-dasharray:none;stroke-opacity:1"
       d="m 348.1872,371.6793 h -7.2856 c 0.2341,-1.175 -0.0635,-0.76 3.6717,-0.76 4.0382,0 3.433,-0.3679 3.6139,0.76 z" /><path
       id="path28"
       style="fill:#2b2b2a;fill-opacity:1;fill-rule:evenodd;stroke:#2b2b2a;stroke-width:0.21600001;stroke-linecap:butt;stroke-linejoin:miter;stroke-miterlimit:22.92558479;stroke-dasharray:none;stroke-opacity:1"
       d="m 256.9561,371.6793 -7.2085,0.002 c 0.2514,-1.0837 0.0984,-0.7994 1.6605,-0.7708 l 4.1533,-0.0107 c 1.5421,-0.008 1.1674,-0.2421 1.3947,0.7792 z" /><path
       id="path30"
       style="fill:#2b2b2a;fill-opacity:1;fill-rule:nonzero;stroke:#2b2b2a;stroke-width:0.21600001;stroke-linecap:butt;stroke-linejoin:miter;stroke-miterlimit:22.92558479;stroke-dasharray:none;stroke-opacity:1"
       d="m 268.3701,366.8672 c 0.1556,0 0.3146,0.005 0.4762,0.0139 0.1633,0.009 0.3223,0.0218 0.4779,0.0388 0.1545,0.0176 0.2991,0.0426 0.4334,0.0703 0.1324,0.0264 0.2492,0.0596 0.3473,0.0981 0.0555,0.0255 0.0989,0.0474 0.1275,0.0658 0.0309,0.0201 0.0533,0.0456 0.0695,0.0788 0.0178,0.03 0.0357,0.0765 0.0533,0.136 0.017,0.0681 0.0394,0.15 0.0595,0.2458 0.0187,0.0989 0.0371,0.2018 0.055,0.3093 0.0193,0.1083 0.0363,0.2111 0.051,0.3084 0.0139,0.0975 0.0247,0.1808 0.0326,0.2474 0.009,0.0664 0.0145,0.1075 0.0145,0.1222 0,0.04 -0.005,0.074 -0.0162,0.1012 -0.0107,0.0264 -0.0269,0.0417 -0.0524,0.0434 -0.0255,0 -0.0479,-0.009 -0.0627,-0.0326 -0.0124,-0.0224 -0.0232,-0.0604 -0.034,-0.112 -0.007,-0.0442 -0.021,-0.102 -0.0388,-0.1718 -0.0176,-0.0671 -0.044,-0.1383 -0.0734,-0.2194 -0.0309,-0.0774 -0.0649,-0.1547 -0.1066,-0.2265 -0.0411,-0.0742 -0.0865,-0.1383 -0.1361,-0.1919 -0.129,-0.1298 -0.2758,-0.2301 -0.4476,-0.2999 -0.1678,-0.0725 -0.3523,-0.1204 -0.5604,-0.1451 -0.2055,-0.0264 -0.4289,-0.038 -0.6695,-0.0363 -0.4119,6e-4 -0.7985,0.0655 -1.1532,0.1899 -0.3563,0.1239 -0.6757,0.2971 -0.9623,0.521 -0.2855,0.2237 -0.5295,0.4811 -0.7314,0.7793 -0.2041,0.2968 -0.3594,0.6177 -0.4691,0.9641 -0.106,0.3446 -0.161,0.7027 -0.1633,1.0712 0,0.3279 0.0202,0.6417 0.0698,0.9394 0.0487,0.2982 0.1343,0.5788 0.2596,0.8416 0.1267,0.2659 0.3045,0.5102 0.5389,0.7353 0.1088,0.112 0.2557,0.2217 0.4391,0.3268 0.1839,0.1069 0.4195,0.1965 0.7081,0.2659 0.2888,0.0706 0.6446,0.1083 1.0675,0.1106 0.2843,-0.002 0.5525,-0.027 0.8022,-0.0788 0.2497,-0.0511 0.4717,-0.1174 0.6656,-0.1993 0.1916,-0.0845 0.3464,-0.1741 0.4606,-0.2721 0.0819,-0.0712 0.1556,-0.1602 0.2174,-0.2659 0.0587,-0.1046 0.1058,-0.2197 0.1392,-0.3425 0.0315,-0.1221 0.0479,-0.2474 0.0479,-0.3736 0,-0.0671 0.003,-0.1173 0.013,-0.1513 0.0108,-0.0349 0.0309,-0.0533 0.0641,-0.0533 0.0295,0 0.0479,0.0178 0.0618,0.0487 0.0111,0.0332 0.0196,0.0856 0.0241,0.1559 0.004,0.0372 0.005,0.0936 0.006,0.1718 0.003,0.0748 0.004,0.1607 0.006,0.2588 5e-4,0.0975 0.003,0.1956 0.006,0.2923 0.004,0.0989 0.006,0.1888 0.0111,0.269 0.007,0.1145 0.013,0.2063 0.0215,0.2792 0.006,0.0672 0.0139,0.1236 0.0184,0.1638 0.005,0.0394 0.009,0.0717 0.009,0.0973 0.002,0.0286 -0.007,0.0527 -0.0224,0.0697 -0.0185,0.0201 -0.0516,0.03 -0.1027,0.0354 -0.1539,0.0108 -0.3084,0.0287 -0.4694,0.055 -0.1615,0.0247 -0.3316,0.0556 -0.513,0.0887 -0.1593,0.0312 -0.3218,0.0528 -0.487,0.0689 -0.1656,0.0162 -0.3255,0.0304 -0.4811,0.0372 -0.1576,0.006 -0.2999,0.0107 -0.4303,0.0107 -0.4926,-0.001 -0.9232,-0.0487 -1.2934,-0.1392 -0.3688,-0.0904 -0.6871,-0.2117 -0.957,-0.367 -0.2682,-0.1562 -0.4963,-0.3317 -0.6888,-0.5256 -0.2118,-0.2166 -0.3878,-0.4413 -0.5278,-0.6811 -0.1437,-0.2373 -0.2529,-0.4763 -0.3317,-0.7127 -0.0805,-0.2372 -0.1369,-0.4623 -0.1701,-0.6732 -0.0348,-0.2112 -0.0501,-0.3988 -0.0487,-0.563 -10e-4,-0.2293 0.0164,-0.4674 0.051,-0.714 0.0349,-0.2475 0.0936,-0.4924 0.1809,-0.7416 0.0858,-0.2463 0.2058,-0.4884 0.3566,-0.7265 0.1527,-0.2372 0.3446,-0.4606 0.5774,-0.6692 0.252,-0.2282 0.534,-0.4198 0.8416,-0.5738 0.3092,-0.1539 0.6556,-0.2721 1.0397,-0.3509 0.3858,-0.0757 0.8178,-0.1168 1.2986,-0.1168 z m 6.5421,3.7871 c 0,-0.29 0.0309,-0.5854 0.0927,-0.8836 0.0643,-0.2962 0.1584,-0.5859 0.2891,-0.8696 0.1307,-0.2815 0.2954,-0.5443 0.4994,-0.79 0.2002,-0.2475 0.44,-0.4615 0.7158,-0.6486 0.2761,-0.1848 0.5922,-0.33 0.9485,-0.4351 0.3554,-0.1052 0.7529,-0.1593 1.1936,-0.1602 0.4661,9e-4 0.8958,0.0689 1.2901,0.2041 0.3974,0.1307 0.752,0.3192 1.0652,0.5627 0.3147,0.2421 0.5828,0.525 0.804,0.8552 0.2233,0.3277 0.3894,0.6871 0.5085,1.0806 0.1176,0.3926 0.174,0.8039 0.1755,1.2376 -10e-4,0.4507 -0.0618,0.8643 -0.1854,1.2381 -0.1214,0.3759 -0.2963,0.7107 -0.5219,1.0035 -0.2256,0.2945 -0.4955,0.5443 -0.8084,0.7475 -0.3141,0.2041 -0.6602,0.3586 -1.0438,0.4655 -0.3809,0.1043 -0.79,0.1598 -1.2268,0.1598 -0.4445,-0.001 -0.8433,-0.0609 -1.2041,-0.1723 -0.3589,-0.1114 -0.6804,-0.2628 -0.9624,-0.4584 -0.2801,-0.1933 -0.5236,-0.4167 -0.7291,-0.667 -0.2055,-0.2506 -0.3741,-0.5179 -0.5054,-0.8002 -0.1346,-0.2812 -0.2336,-0.5635 -0.2985,-0.8504 -0.0626,-0.2829 -0.0966,-0.5578 -0.0966,-0.8192 z m 0.9153,0.2699 c 0.002,0.5286 0.0742,0.9884 0.214,1.3844 0.14,0.3971 0.337,0.7265 0.589,0.9924 0.2537,0.265 0.5514,0.4623 0.8929,0.5944 0.3416,0.1338 0.7144,0.1987 1.1177,0.1987 0.3076,0 0.603,-0.0501 0.8898,-0.1485 0.2852,-0.0972 0.5534,-0.2435 0.7994,-0.4365 0.2466,-0.1942 0.462,-0.4329 0.6486,-0.7189 0.1862,-0.2886 0.3308,-0.6185 0.4342,-0.9927 0.1029,-0.3773 0.1562,-0.7977 0.1576,-1.26 -10e-4,-0.4646 -0.0453,-0.8711 -0.1374,-1.2175 -0.0873,-0.3447 -0.2081,-0.6409 -0.3595,-0.8866 -0.1516,-0.2404 -0.32,-0.4414 -0.5071,-0.5984 -0.1871,-0.1591 -0.3827,-0.2804 -0.5819,-0.368 -0.1979,-0.0864 -0.3898,-0.1491 -0.5752,-0.1839 -0.1857,-0.0363 -0.3526,-0.0502 -0.4978,-0.0502 -0.4354,0.002 -0.841,0.0881 -1.2146,0.2613 -0.3716,0.1724 -0.6987,0.4204 -0.9777,0.7421 -0.2798,0.3238 -0.4972,0.7113 -0.6539,1.1642 -0.1554,0.453 -0.235,0.9601 -0.2381,1.5237 z m 11.5727,-0.8388 c 0.001,-0.3487 0.0232,-0.6571 0.0641,-0.9261 0.0416,-0.2676 0.1011,-0.5003 0.1777,-0.6982 0.0743,-0.2009 0.1655,-0.3741 0.2653,-0.5215 0.1026,-0.1472 0.2126,-0.2761 0.3308,-0.389 0.1732,-0.1601 0.3586,-0.286 0.5519,-0.3787 0.1965,-0.0929 0.3881,-0.1615 0.5752,-0.2058 0.1871,-0.0425 0.3554,-0.0703 0.5054,-0.0833 0.1494,-0.0116 0.2698,-0.017 0.3532,-0.0156 0.1902,-0.004 0.3943,0.0139 0.6131,0.0479 0.2171,0.0349 0.4422,0.1038 0.6741,0.205 0.2333,0.1029 0.4637,0.2582 0.6965,0.4592 0.1916,0.1723 0.3464,0.371 0.4637,0.5927 0.1177,0.2237 0.2086,0.4623 0.2682,0.7152 0.0612,0.2551 0.1046,0.5139 0.1238,0.7806 0.0233,0.2668 0.0332,0.5327 0.0324,0.794 v 1.0296 c 0,0.2993 0,0.5541 0,0.7662 0,0.21 0,0.3863 8e-4,0.5278 0,0.1414 9e-4,0.2613 0.002,0.3563 0.002,0.093 0.005,0.174 0.005,0.2421 0.004,0.0657 0.005,0.1312 0.0102,0.1908 0.006,0.1646 0.0363,0.2922 0.0873,0.3781 0.0524,0.0864 0.1423,0.1429 0.2681,0.1701 0.0564,0.009 0.1029,0.0184 0.1392,0.0232 0.0354,0.005 0.0695,0.005 0.1029,0.005 0.0201,0 0.0386,0.004 0.0525,0.0147 0.0155,0.009 0.0232,0.0239 0.0232,0.0448 0,0.0278 -0.0125,0.0471 -0.0363,0.061 -0.0255,0.0107 -0.0635,0.0147 -0.1176,0.0147 -0.0734,0 -0.1537,-0.001 -0.2387,-0.004 -0.0845,-0.002 -0.1695,-0.006 -0.2492,-0.0107 -0.0793,-0.005 -0.1482,-0.005 -0.2077,-0.01 -0.0573,-0.003 -0.0936,-0.004 -0.1137,-0.004 -0.017,0 -0.055,8e-4 -0.1222,0.004 -0.0649,0.005 -0.1491,0.005 -0.2472,0.01 -0.0966,0.005 -0.2049,0.008 -0.3177,0.0107 -0.1123,0.003 -0.2234,0.004 -0.3334,0.004 -0.0538,0 -0.0918,-0.004 -0.1165,-0.0147 -0.0241,-0.0139 -0.0371,-0.0332 -0.0371,-0.061 5e-4,-0.0209 0.009,-0.0357 0.0232,-0.0448 0.0162,-0.0102 0.034,-0.0147 0.0525,-0.0147 0.0309,0 0.0666,0 0.1074,-0.002 0.0411,-0.003 0.0805,-0.005 0.1213,-0.0116 0.0388,-0.002 0.0734,-0.009 0.0989,-0.0153 0.1038,-0.0202 0.1871,-0.055 0.243,-0.099 0.0618,-0.0433 0.0995,-0.1029 0.1267,-0.1771 0.0232,-0.0717 0.0402,-0.1639 0.0456,-0.2721 0.005,-0.0596 0.009,-0.1251 0.009,-0.1908 0.002,-0.0681 0.005,-0.1491 0.005,-0.2421 0,-0.095 0.002,-0.2149 0.002,-0.3563 0.002,-0.1415 0.002,-0.3178 0.002,-0.5278 0,-0.2121 0,-0.4669 0,-0.7662 v -1.2028 c 0.002,-0.3316 -0.013,-0.6432 -0.0464,-0.9331 -0.0315,-0.2883 -0.0879,-0.5525 -0.1693,-0.7915 -0.0827,-0.2426 -0.1978,-0.4529 -0.3432,-0.6369 -0.1166,-0.14 -0.2549,-0.2605 -0.4165,-0.364 -0.1593,-0.102 -0.3325,-0.1825 -0.5195,-0.2421 -0.1871,-0.0564 -0.3796,-0.0881 -0.576,-0.0881 -0.1823,0 -0.3555,0.0133 -0.5179,0.038 -0.1591,0.0292 -0.3192,0.081 -0.4723,0.1576 -0.1545,0.0788 -0.3084,0.1885 -0.4646,0.333 -0.1052,0.1007 -0.201,0.2126 -0.2883,0.345 -0.0881,0.1321 -0.1638,0.2897 -0.2304,0.4745 -0.0624,0.184 -0.1151,0.4043 -0.1491,0.6611 -0.0372,0.2565 -0.0556,0.5564 -0.0556,0.9011 v 1.3482 c 0,0.2993 0,0.5541 0,0.7662 0,0.21 0,0.3863 9e-4,0.5278 0,0.1414 0.003,0.2613 0.005,0.3563 0,0.093 0.003,0.174 0.005,0.2421 0.003,0.0657 0.005,0.1312 0.009,0.1908 0.005,0.1678 0.038,0.2953 0.0899,0.3857 0.0502,0.0905 0.1406,0.1438 0.2673,0.1625 0.0581,0.009 0.1043,0.0184 0.1392,0.0232 0.0363,0.005 0.0703,0.005 0.1012,0.005 0.0201,0 0.0388,0.004 0.0527,0.0147 0.0162,0.009 0.0255,0.0239 0.0255,0.0448 0,0.0278 -0.0139,0.0471 -0.038,0.061 -0.0246,0.0107 -0.0649,0.0147 -0.1168,0.0147 -0.0734,0 -0.1598,-0.001 -0.2588,-0.004 -0.0975,-0.002 -0.1956,-0.006 -0.2939,-0.0107 -0.0989,-0.005 -0.1823,-0.005 -0.2565,-0.01 -0.0726,-0.003 -0.1191,-0.004 -0.1446,-0.004 -0.0233,0 -0.072,8e-4 -0.15,0.004 -0.0757,0.005 -0.1678,0.005 -0.2735,0.01 -0.1074,0.005 -0.222,0.008 -0.3402,0.0107 -0.1182,0.003 -0.2335,0.004 -0.3447,0.004 -0.0518,0 -0.0904,-0.004 -0.1167,-0.0147 -0.0241,-0.0139 -0.038,-0.0332 -0.038,-0.061 0.003,-0.0209 0.009,-0.0357 0.0263,-0.0448 0.0139,-0.0102 0.0323,-0.0147 0.0525,-0.0147 0.0295,0 0.0657,0 0.106,-0.002 0.0408,-0.003 0.0811,-0.005 0.1222,-0.0116 0.0394,-0.002 0.0711,-0.009 0.0989,-0.0153 0.1035,-0.0202 0.1862,-0.055 0.2435,-0.099 0.0578,-0.0433 0.0998,-0.1029 0.1258,-0.1771 0.0241,-0.0717 0.0394,-0.1639 0.0457,-0.2721 0.002,-0.0596 0.006,-0.1251 0.009,-0.1908 9e-4,-0.0681 0.005,-0.1491 0.005,-0.2421 0.002,-0.095 0.002,-0.2149 0.002,-0.3563 0.003,-0.1415 0.003,-0.3178 0.003,-0.5278 0,-0.2121 0,-0.4669 0,-0.7662 v -1.406 z m 13.7401,3.7862 1.2129,-0.017 c 0.2311,-0.006 0.4213,-0.0224 0.5726,-0.0527 0.1508,-0.0269 0.2685,-0.0658 0.3566,-0.1114 0.0887,-0.0485 0.1505,-0.1018 0.1899,-0.1653 0.038,-0.0626 0.0604,-0.1292 0.0675,-0.2026 l 0.009,-0.1058 c 0.005,-0.0657 0.0125,-0.1091 0.0232,-0.1315 0.0125,-0.0233 0.0295,-0.0332 0.0542,-0.0318 0.0201,0 0.0348,0.009 0.0479,0.0304 0.0139,0.0201 0.0192,0.0516 0.0192,0.0949 0,0.0287 0.002,0.0842 0.005,0.171 0.003,0.0819 0.005,0.1794 0.01,0.2899 0.004,0.1103 0.007,0.2203 0.009,0.3255 0.004,0.1088 0.004,0.1992 0.004,0.2735 0.003,0.0286 0,0.0564 -0.006,0.0805 -0.004,0.0224 -0.0184,0.0332 -0.0416,0.0354 -0.0179,0 -0.0519,-0.007 -0.0958,-0.017 -0.044,-0.0107 -0.1012,-0.0201 -0.1747,-0.0326 -0.0759,-0.0139 -0.1717,-0.0246 -0.2846,-0.0331 -0.1119,-0.01 -0.2443,-0.0139 -0.3988,-0.0139 h -3.613 c -0.0417,0 -0.1029,8e-4 -0.1871,0.006 -0.0842,0.003 -0.1763,0.009 -0.2798,0.0162 -0.0989,0.008 -0.201,0.0156 -0.2945,0.0246 -0.085,0.008 -0.1553,0.0219 -0.2103,0.0389 -0.0556,0.017 -0.0981,0.0363 -0.1321,0.0518 -0.0326,0.0162 -0.0596,0.0247 -0.0805,0.0261 -0.0131,-0.001 -0.0261,-0.0139 -0.0386,-0.034 -0.0125,-0.0224 -0.0247,-0.0493 -0.0332,-0.0748 -0.0107,-0.0304 -0.0201,-0.0542 -0.0255,-0.0743 -0.005,-0.0178 -0.0147,-0.0595 -0.0309,-0.1236 -0.0147,-0.0657 -0.0317,-0.1454 -0.0527,-0.2358 -0.0193,-0.0882 -0.0417,-0.1786 -0.0601,-0.2713 -0.0187,-0.0913 -0.034,-0.1695 -0.0482,-0.2381 -0.013,-0.068 -0.0207,-0.1123 -0.0207,-0.1324 0,-0.03 0.006,-0.051 0.0122,-0.0641 0.0111,-0.0147 0.0227,-0.0232 0.0366,-0.0232 0.0184,0 0.0354,0.005 0.0516,0.0187 0.0156,0.0139 0.0303,0.0408 0.0442,0.078 0.013,0.0309 0.0309,0.068 0.0533,0.1128 0.0232,0.0434 0.0587,0.1052 0.112,0.1848 0.0479,0.0774 0.1128,0.1375 0.1887,0.1817 0.0789,0.0439 0.1809,0.0748 0.3053,0.0944 0.1267,0.0176 0.2892,0.0309 0.4879,0.034 l 1.4261,0.017 v -4.0745 c 0,-0.311 0,-0.597 -0.002,-0.8643 0,-0.2659 -0.006,-0.5026 -0.0133,-0.7098 -0.006,-0.2095 -0.017,-0.3818 -0.0315,-0.5184 -0.0124,-0.0922 -0.0294,-0.178 -0.0479,-0.2529 -0.0201,-0.0734 -0.0456,-0.136 -0.0844,-0.1825 -0.0346,-0.0494 -0.0856,-0.0797 -0.1483,-0.0936 -0.0448,-0.01 -0.093,-0.0193 -0.1431,-0.0278 -0.0519,-0.005 -0.1021,-0.01 -0.1452,-0.01 -0.0295,0 -0.0504,-0.008 -0.0604,-0.0178 -0.0138,-0.0117 -0.0178,-0.0278 -0.0178,-0.0411 0,-0.0292 0.013,-0.0479 0.0371,-0.0587 0.0255,-0.0122 0.0641,-0.0179 0.1168,-0.0179 0.0748,0 0.163,0 0.2628,0.006 0.1003,0.002 0.201,0.005 0.299,0.008 0.1007,0.004 0.1857,0.005 0.256,0.01 0.0695,0.004 0.112,0.005 0.1267,0.005 0.0148,0 0.0595,-6e-4 0.1307,-0.005 0.0743,-0.005 0.1678,-0.006 0.2829,-0.01 0.1122,-0.003 0.235,-0.006 0.371,-0.008 0.1338,-0.006 0.2676,-0.006 0.402,-0.006 0.0519,0 0.0896,0.006 0.1159,0.0196 0.0241,0.0139 0.0363,0.0331 0.0363,0.057 0,0.0133 -0.003,0.0294 -0.0161,0.0411 -0.0117,0.01 -0.0318,0.0178 -0.061,0.0178 -0.0295,0 -0.0706,6e-4 -0.119,0.005 -0.0536,0.005 -0.1061,0.009 -0.1616,0.0138 -0.055,0.005 -0.106,0.0117 -0.1531,0.0193 -0.0944,0.0139 -0.1686,0.0442 -0.2202,0.0936 -0.0505,0.0465 -0.0859,0.1091 -0.1083,0.1825 -0.0224,0.0749 -0.0372,0.1607 -0.0465,0.2529 -0.0148,0.1366 -0.0269,0.3089 -0.0332,0.5184 -0.006,0.2072 -0.0124,0.4439 -0.0124,0.7098 -0.002,0.2673 -0.002,0.5533 -0.002,0.8643 v 4.0745 z m 7.1782,-3.7862 c 0.001,-0.3487 0.0215,-0.6571 0.0649,-0.9261 0.0416,-0.2676 0.102,-0.5003 0.1771,-0.6982 0.078,-0.2009 0.1661,-0.3741 0.2659,-0.5215 0.1026,-0.1472 0.2118,-0.2761 0.3308,-0.389 0.1738,-0.1601 0.3578,-0.286 0.5528,-0.3787 0.1961,-0.0929 0.3872,-0.1615 0.5734,-0.2058 0.188,-0.0425 0.3541,-0.0703 0.5063,-0.0833 0.15,-0.0116 0.2676,-0.017 0.3518,-0.0156 0.191,-0.004 0.3957,0.0139 0.6128,0.0479 0.2189,0.0349 0.4439,0.1038 0.6767,0.205 0.2318,0.1029 0.462,0.2582 0.6964,0.4592 0.1908,0.1723 0.3461,0.371 0.4629,0.5927 0.1168,0.2237 0.2064,0.4623 0.2682,0.7152 0.0604,0.2551 0.1046,0.5139 0.1244,0.7806 0.0233,0.2668 0.0326,0.5327 0.0295,0.794 v 1.0296 c 0,0.2993 0,0.5541 0,0.7662 0,0.21 0,0.3863 0.003,0.5278 0,0.1414 9e-4,0.2613 0.003,0.3563 9e-4,0.093 0.002,0.174 0.005,0.2421 0.003,0.0657 0.006,0.1312 0.0102,0.1908 0.005,0.1646 0.0354,0.2922 0.0864,0.3781 0.0519,0.0864 0.1423,0.1429 0.2691,0.1701 0.0564,0.009 0.1037,0.0184 0.1391,0.0232 0.0355,0.005 0.0703,0.005 0.1029,0.005 0.0193,0 0.0363,0.004 0.0525,0.0147 0.0147,0.009 0.0241,0.0239 0.0241,0.0448 0,0.0278 -0.0134,0.0471 -0.0372,0.061 -0.0272,0.0107 -0.0649,0.0147 -0.1168,0.0147 -0.0742,0 -0.1539,-0.001 -0.2395,-0.004 -0.0836,-0.002 -0.1695,-0.006 -0.2506,-0.0107 -0.0805,-0.005 -0.1491,-0.005 -0.2063,-0.01 -0.0564,-0.003 -0.0944,-0.004 -0.1137,-0.004 -0.017,0 -0.0556,8e-4 -0.1222,0.004 -0.0649,0.005 -0.1508,0.005 -0.2472,0.01 -0.0983,0.005 -0.204,0.008 -0.3171,0.0107 -0.1134,0.003 -0.224,0.004 -0.3354,0.004 -0.0524,0 -0.0913,-0.004 -0.1159,-0.0147 -0.0247,-0.0139 -0.0363,-0.0332 -0.0363,-0.061 6e-4,-0.0209 0.008,-0.0357 0.0224,-0.0448 0.017,-0.0102 0.0323,-0.0147 0.0541,-0.0147 0.0287,0 0.0658,0 0.1058,-0.002 0.0402,-0.003 0.0813,-0.005 0.1221,-0.0116 0.0389,-0.002 0.0729,-0.009 0.0984,-0.0153 0.1049,-0.0202 0.1876,-0.055 0.2441,-0.099 0.0595,-0.0433 0.0983,-0.1029 0.1261,-0.1771 0.0238,-0.0717 0.0394,-0.1639 0.0431,-0.2721 0.005,-0.0596 0.0102,-0.1251 0.0102,-0.1908 0.004,-0.0681 0.007,-0.1491 0.007,-0.2421 0,-0.095 8e-4,-0.2149 8e-4,-0.3563 0.003,-0.1415 0.003,-0.3178 0.003,-0.5278 0,-0.2121 0,-0.4669 0,-0.7662 v -1.2028 c 0.002,-0.3316 -0.0162,-0.6432 -0.0471,-0.9331 -0.0317,-0.2883 -0.0867,-0.5525 -0.1678,-0.7915 -0.0836,-0.2426 -0.1987,-0.4529 -0.3441,-0.6369 -0.1174,-0.14 -0.2557,-0.2605 -0.4164,-0.364 -0.161,-0.102 -0.3334,-0.1825 -0.5205,-0.2421 -0.1854,-0.0564 -0.3787,-0.0881 -0.5765,-0.0881 -0.18,0 -0.3541,0.0133 -0.5157,0.038 -0.1624,0.0292 -0.32,0.081 -0.4722,0.1576 -0.1545,0.0788 -0.3115,0.1885 -0.4677,0.333 -0.1035,0.1007 -0.2002,0.2126 -0.2861,0.345 -0.0881,0.1321 -0.1638,0.2897 -0.231,0.4745 -0.0626,0.184 -0.1145,0.4043 -0.1499,0.6611 -0.0349,0.2565 -0.0542,0.5564 -0.0542,0.9011 v 1.3482 c 0,0.2993 0,0.5541 0,0.7662 0,0.21 0,0.3863 9e-4,0.5278 0,0.1414 0.002,0.2613 0.004,0.3563 0,0.093 0.002,0.174 0.006,0.2421 9e-4,0.0657 0.005,0.1312 0.008,0.1908 0.005,0.1678 0.0349,0.2953 0.089,0.3857 0.051,0.0905 0.1406,0.1438 0.2673,0.1625 0.0556,0.009 0.1029,0.0184 0.1401,0.0232 0.0354,0.005 0.0694,0.005 0.0994,0.005 0.0219,0 0.0397,0.004 0.0542,0.0147 0.0147,0.009 0.0241,0.0239 0.0241,0.0448 0,0.0278 -0.0131,0.0471 -0.0372,0.061 -0.0246,0.0107 -0.0649,0.0147 -0.1173,0.0147 -0.0737,0 -0.1593,-0.001 -0.2582,-0.004 -0.0967,-0.002 -0.1951,-0.006 -0.2931,-0.0107 -0.099,-0.005 -0.184,-0.005 -0.2574,-0.01 -0.0734,-0.003 -0.1214,-0.004 -0.146,-0.004 -0.0224,0 -0.0703,8e-4 -0.1485,0.004 -0.0749,0.005 -0.1679,0.005 -0.2744,0.01 -0.1075,0.005 -0.2211,0.008 -0.3394,0.0107 -0.119,0.003 -0.2335,0.004 -0.3446,0.004 -0.0519,0 -0.0905,-0.004 -0.1168,-0.0147 -0.0233,-0.0139 -0.0372,-0.0332 -0.0372,-0.061 0.002,-0.0209 0.009,-0.0357 0.0233,-0.0448 0.0153,-0.0102 0.0331,-0.0147 0.0547,-0.0147 0.0295,0 0.0658,0 0.1052,-0.002 0.0416,-0.003 0.0819,-0.005 0.1213,-0.0116 0.0411,-0.002 0.0728,-0.009 0.1006,-0.0153 0.1043,-0.0202 0.1854,-0.055 0.2444,-0.099 0.0564,-0.0433 0.098,-0.1029 0.125,-0.1771 0.0241,-0.0717 0.0388,-0.1639 0.0433,-0.2721 0.005,-0.0596 0.008,-0.1251 0.0102,-0.1908 6e-4,-0.0681 0.005,-0.1491 0.005,-0.2421 0.002,-0.095 0.003,-0.2149 0.003,-0.3563 10e-4,-0.1415 10e-4,-0.3178 10e-4,-0.5278 0,-0.2121 0,-0.4669 0,-0.7662 v -1.406 z m 11.6895,-0.2883 c 0,-0.311 0,-0.597 -0.004,-0.8643 -9e-4,-0.2659 -0.005,-0.5026 -0.0125,-0.7098 -0.006,-0.2095 -0.017,-0.3818 -0.034,-0.5184 -0.0108,-0.0922 -0.0269,-0.178 -0.0462,-0.2529 -0.0193,-0.0734 -0.0465,-0.136 -0.0842,-0.1825 -0.034,-0.0494 -0.0845,-0.0797 -0.1494,-0.0936 -0.0439,-0.01 -0.0935,-0.0193 -0.1428,-0.0278 -0.0528,-0.005 -0.0998,-0.01 -0.1463,-0.01 -0.0286,0 -0.0471,-0.008 -0.0587,-0.0178 -0.013,-0.0117 -0.017,-0.0278 -0.017,-0.0411 0,-0.0292 0.0131,-0.0479 0.0371,-0.0587 0.0247,-0.0122 0.0635,-0.0179 0.116,-0.0179 0.0757,0 0.1638,0 0.2619,0.006 0.1021,0.002 0.1996,0.005 0.2976,0.008 0.0967,0.004 0.1764,0.005 0.2435,0.01 0.0627,0.004 0.0998,0.005 0.1038,0.005 0.0147,0 0.0578,-6e-4 0.1312,-0.005 0.0734,-0.005 0.167,-0.006 0.2815,-0.01 0.112,-0.003 0.2364,-0.006 0.3702,-0.008 0.1347,-0.006 0.269,-0.006 0.402,-0.006 0.0527,0 0.0912,0.006 0.1185,0.0196 0.0238,0.0139 0.0354,0.0331 0.0354,0.057 0,0.0133 -0.005,0.0294 -0.0162,0.0411 -0.0133,0.01 -0.0317,0.0178 -0.0603,0.0178 -0.0309,0 -0.0712,6e-4 -0.1205,0.005 -0.051,0.005 -0.1052,0.009 -0.1602,0.0138 -0.0555,0.005 -0.1074,0.0117 -0.1539,0.0193 -0.0935,0.0139 -0.1675,0.0442 -0.2202,0.0936 -0.0502,0.0465 -0.0874,0.1091 -0.1066,0.1825 -0.0247,0.0749 -0.0403,0.1607 -0.0479,0.2529 -0.0162,0.1366 -0.0278,0.3089 -0.0332,0.5184 -0.007,0.2072 -0.0125,0.4439 -0.0125,0.7098 -0.004,0.2673 -0.004,0.5533 -0.004,0.8643 v 0.2302 c 0,0.0249 0.005,0.0456 0.017,0.0572 0.0102,0.0131 0.0286,0.021 0.0527,0.021 l 1.1835,-0.0201 c 0.03,0 0.0515,-0.005 0.0717,-0.0125 0.0164,-0.0122 0.0365,-0.0263 0.055,-0.0456 0.0496,-0.0649 0.1114,-0.1483 0.1862,-0.2534 0.0788,-0.1061 0.1638,-0.2234 0.2574,-0.3549 0.0975,-0.1299 0.1956,-0.2659 0.2985,-0.406 0.1029,-0.1406 0.2055,-0.2789 0.3084,-0.411 0.1808,-0.2421 0.3447,-0.4547 0.4878,-0.6409 0.1469,-0.1831 0.2838,-0.341 0.411,-0.4708 0.1302,-0.129 0.2654,-0.2302 0.4006,-0.3053 0.0836,-0.0448 0.1686,-0.0805 0.2582,-0.1075 0.0919,-0.0277 0.1987,-0.0464 0.3215,-0.0572 0.123,-0.0116 0.2721,-0.0179 0.4524,-0.0179 h 0.6831 c 0.0859,0 0.1454,0.006 0.1817,0.0179 0.034,0.0108 0.0519,0.0295 0.0488,0.0587 0,0.0133 -0.009,0.0294 -0.0247,0.0411 -0.0178,0.01 -0.0371,0.0178 -0.0604,0.0178 -0.0294,0 -0.0765,0 -0.1423,0.002 -0.064,0.004 -0.1428,0.0108 -0.2332,0.0255 -0.0814,0.01 -0.1812,0.0363 -0.2971,0.0757 -0.1174,0.0385 -0.2489,0.106 -0.3971,0.2027 -0.1486,0.0958 -0.3093,0.235 -0.4825,0.4158 -0.2767,0.2991 -0.5837,0.6585 -0.9159,1.0775 -0.3294,0.4175 -0.6919,0.8812 -1.0893,1.3884 0.2882,0.2673 0.5173,0.5241 0.6879,0.7752 0.1718,0.2512 0.2946,0.4941 0.3711,0.7351 0.0728,0.2406 0.11,0.4779 0.1083,0.716 -0.002,0.1684 -0.0233,0.3214 -0.072,0.4615 -0.044,0.1414 -0.0995,0.2664 -0.1698,0.3787 -0.0706,0.1097 -0.1432,0.2072 -0.2183,0.2851 -0.0757,0.0806 -0.1429,0.1415 -0.2038,0.1849 -0.1726,0.1199 -0.3549,0.2134 -0.5505,0.2735 -0.1947,0.0612 -0.3957,0.1029 -0.599,0.1222 -0.2066,0.0201 -0.4113,0.03 -0.6154,0.0286 -0.0603,0 -0.1337,-0.001 -0.2219,-0.004 -0.0873,0 -0.1792,-0.002 -0.2752,-0.006 -0.0973,-0.003 -0.19,-0.005 -0.2798,-0.009 -0.0888,-8e-4 -0.1647,-0.005 -0.2288,-0.005 -0.0649,-0.003 -0.1083,-0.004 -0.1315,-0.004 -0.0139,0 -0.0556,8e-4 -0.1298,0.004 -0.0718,0.005 -0.1608,0.005 -0.269,0.01 -0.1089,0.005 -0.2226,0.008 -0.3425,0.0107 -0.1204,0.003 -0.2358,0.004 -0.3469,0.004 -0.0528,0 -0.0905,-0.004 -0.1177,-0.0147 -0.0246,-0.0139 -0.0371,-0.0332 -0.0371,-0.061 0.003,-0.0209 0.009,-0.0357 0.0241,-0.0448 0.0178,-0.0102 0.0332,-0.0147 0.055,-0.0147 0.0292,0 0.0649,0 0.1043,-0.002 0.0408,-0.003 0.0825,-0.005 0.1222,-0.0116 0.0399,-0.002 0.0725,-0.009 0.0995,-0.0153 0.1051,-0.0202 0.1856,-0.055 0.2443,-0.099 0.0595,-0.0433 0.0989,-0.1029 0.1262,-0.1771 0.0238,-0.074 0.0385,-0.1639 0.0439,-0.2721 0.003,-0.0596 0.006,-0.1251 0.009,-0.1908 0.002,-0.0681 0.005,-0.1491 0.007,-0.2421 0,-0.095 9e-4,-0.2149 9e-4,-0.3563 0.004,-0.1415 0.004,-0.3178 0.004,-0.5278 0,-0.2121 0,-0.4669 0,-0.7662 v -1.6943 z m 0.7682,4.0079 c 0,0.0278 0.008,0.0527 0.0218,0.0726 0.013,0.0178 0.0309,0.034 0.057,0.0433 0.0326,0.0102 0.0813,0.0193 0.1454,0.0287 0.0649,0.009 0.1406,0.0139 0.225,0.0201 0.0857,0.005 0.1769,0.008 0.2744,0.008 0.3456,-9e-4 0.6407,-0.0774 0.8913,-0.2302 0.248,-0.1539 0.4382,-0.3742 0.5734,-0.6611 0.1329,-0.2868 0.2004,-0.6324 0.2027,-1.0343 0,-0.2449 -0.0272,-0.4646 -0.0774,-0.6594 -0.0519,-0.1933 -0.1213,-0.3608 -0.2095,-0.5 -0.085,-0.1392 -0.1876,-0.2483 -0.3007,-0.324 -0.1129,-0.0774 -0.2319,-0.1258 -0.3595,-0.1499 -0.125,-0.0247 -0.2449,-0.0355 -0.3639,-0.0349 -0.1415,0 -0.2829,0.007 -0.4199,0.0218 -0.1329,0.0131 -0.2542,0.0332 -0.3585,0.0533 -0.1061,0.0238 -0.1849,0.0502 -0.2319,0.0788 -0.0241,0.0139 -0.0425,0.0326 -0.0527,0.0519 -0.0117,0.0207 -0.017,0.0408 -0.017,0.0649 v 3.1507 z" /><path
       id="path32"
       style="fill:#2b2b2a;fill-opacity:1;fill-rule:nonzero;stroke:#2b2b2a;stroke-width:0.21600001;stroke-linecap:butt;stroke-linejoin:miter;stroke-miterlimit:22.92558479;stroke-dasharray:none;stroke-opacity:1"
       d="m 330.4026,369.7971 c 0,-0.311 0,-0.597 -0.002,-0.8629 -0.003,-0.2673 -0.005,-0.504 -0.013,-0.7112 -0.005,-0.2095 -0.0162,-0.3818 -0.0326,-0.5184 -0.0108,-0.0922 -0.0292,-0.178 -0.0471,-0.252 -0.0193,-0.0743 -0.0465,-0.1361 -0.0842,-0.1834 -0.0348,-0.0494 -0.0836,-0.0797 -0.1494,-0.0936 -0.043,-0.01 -0.0926,-0.0193 -0.1428,-0.0278 -0.0527,-0.005 -0.1007,-0.01 -0.1463,-0.01 -0.0283,0 -0.047,-0.008 -0.0578,-0.0178 -0.0139,-0.0117 -0.0187,-0.0278 -0.0187,-0.0411 0,-0.0292 0.0133,-0.0479 0.0371,-0.0587 0.025,-0.0122 0.0644,-0.0179 0.1176,-0.0179 0.0743,0 0.1616,0.006 0.2614,0.008 0.0989,0.008 0.2001,0.0111 0.2991,0.0111 0.0997,0.005 0.1879,0.009 0.2613,0.009 0.0703,6e-4 0.112,6e-4 0.1222,6e-4 0.0709,0 0.1675,-6e-4 0.2883,-0.006 0.1227,-0.005 0.2766,-0.0142 0.4637,-0.0227 0.188,-0.005 0.4159,-0.0107 0.6834,-0.0184 0.2705,-0.005 0.5851,-0.0108 0.9446,-0.0108 0.1244,-0.003 0.2202,0.001 0.2874,0.0108 0.0675,0.008 0.1159,0.0269 0.1508,0.0618 0.034,0.0371 0.0618,0.0967 0.0813,0.1772 0.01,0.0416 0.0224,0.098 0.0332,0.1675 0.0122,0.0711 0.0216,0.1463 0.0309,0.2265 0.0122,0.0822 0.0238,0.161 0.0323,0.2381 0.008,0.0765 0.0148,0.1414 0.0224,0.195 0.003,0.0556 0.006,0.0927 0.006,0.108 0.003,0.0357 0,0.0689 -0.005,0.0975 -0.006,0.0287 -0.0241,0.044 -0.0519,0.0471 -0.0232,0 -0.0416,-0.009 -0.0547,-0.0323 -0.0139,-0.0233 -0.0224,-0.0596 -0.0326,-0.1123 -0.0331,-0.197 -0.081,-0.347 -0.1468,-0.4552 -0.068,-0.1083 -0.1624,-0.1885 -0.2877,-0.2387 -0.0848,-0.0357 -0.1831,-0.0595 -0.2951,-0.0737 -0.1097,-0.0145 -0.222,-0.0247 -0.3334,-0.0292 -0.1105,-0.003 -0.2094,-0.003 -0.295,-0.003 -0.2345,-9e-4 -0.4244,0.009 -0.569,0.0323 -0.1454,0.0195 -0.2573,0.0581 -0.3356,0.1137 -0.0742,0.0581 -0.1284,0.136 -0.1593,0.2403 -0.0292,0.1046 -0.0493,0.2398 -0.0533,0.4037 -0.003,0.0448 -0.005,0.1159 -0.005,0.2188 0,0.1004 0,0.2203 0,0.3555 0,0.1346 0,0.2721 0,0.4104 0.001,0.1401 0.001,0.2682 0.001,0.385 0.003,0.1176 0.003,0.2103 0.003,0.2792 v 0.847 c 0,0.0196 0.004,0.0366 0.0148,0.0479 0.01,0.0133 0.0286,0.0196 0.0524,0.0196 0.0335,0 0.0944,0 0.1803,-0.002 0.0859,-0.002 0.1854,-0.005 0.2999,-0.005 0.1137,-0.004 0.2287,-0.008 0.3464,-0.0125 0.119,-0.002 0.2265,-0.009 0.3223,-0.0113 0.0989,-0.006 0.1732,-0.0117 0.2296,-0.017 0.1213,-0.0134 0.218,-0.038 0.2866,-0.0743 0.0689,-0.038 0.1185,-0.0765 0.1508,-0.123 0.0303,-0.0479 0.0502,-0.0936 0.0626,-0.1406 0.0193,-0.0613 0.0309,-0.1168 0.0332,-0.1693 0.005,-0.051 0.008,-0.1006 0.005,-0.1476 0,-0.0247 0.005,-0.0465 0.0153,-0.0613 0.0116,-0.017 0.0278,-0.0261 0.0527,-0.0261 0.0216,0.002 0.0394,0.0122 0.0479,0.0315 0.01,0.0187 0.0148,0.0434 0.0162,0.0697 0.003,0.0295 0.003,0.0564 0.003,0.0828 0,0.017 10e-4,0.051 0.004,0.0967 6e-4,0.0479 0.005,0.1012 0.01,0.1638 0.004,0.0618 0.005,0.1245 0.01,0.1854 0.006,0.0649 0.009,0.1208 0.0142,0.1718 0.0176,0.1559 0.0323,0.2798 0.051,0.3671 0.0153,0.0859 0.0238,0.1437 0.0247,0.1709 0,0.0283 -0.002,0.0479 -0.0116,0.0609 -0.009,0.0125 -0.0193,0.0162 -0.0349,0.0162 -0.0193,0 -0.0377,-0.0108 -0.0609,-0.034 -0.0219,-0.0233 -0.0505,-0.0516 -0.0845,-0.0913 -0.0417,-0.0462 -0.0995,-0.0788 -0.1698,-0.0964 -0.0737,-0.0178 -0.1678,-0.0309 -0.2823,-0.0371 -0.0372,-0.005 -0.0998,-0.008 -0.18,-0.0102 -0.0842,-6e-4 -0.1795,-0.004 -0.2861,-0.004 -0.1097,-0.003 -0.2202,-0.004 -0.3356,-0.004 -0.1136,-8e-4 -0.2242,-8e-4 -0.3268,-0.004 -0.1038,0 -0.1894,0 -0.2614,0 -0.0725,0 -0.1182,0 -0.1414,0 -0.0241,0 -0.038,0.008 -0.0465,0.0224 -0.01,0.017 -0.0108,0.0411 -0.0108,0.0751 v 2.6592 c 0,0.034 0.004,0.0572 0.0139,0.0748 0.0102,0.0139 0.025,0.0224 0.0434,0.0224 0.0241,0 0.0765,0 0.1607,-0.003 0.0867,0 0.1857,-10e-4 0.3022,-10e-4 0.1162,-0.004 0.2344,-0.005 0.3518,-0.005 0.1182,-0.003 0.2228,-0.006 0.3155,-0.008 0.0912,-0.005 0.1544,-0.006 0.1893,-0.0108 0.1724,-0.0209 0.3022,-0.0456 0.3943,-0.0765 0.0904,-0.0317 0.1568,-0.0706 0.1979,-0.11 0.0425,-0.0456 0.0717,-0.0918 0.0927,-0.1428 0.0147,-0.038 0.0286,-0.082 0.0371,-0.1245 0.006,-0.0456 0.0116,-0.089 0.0156,-0.1275 0.005,-0.0394 0.005,-0.0703 0.005,-0.0944 0,-0.0386 0.005,-0.0695 0.0184,-0.0905 0.0111,-0.0232 0.0295,-0.034 0.0582,-0.034 0.0201,9e-4 0.0348,0.0108 0.0456,0.0349 0.009,0.0232 0.0176,0.0456 0.0224,0.0703 0.004,0.0295 0.009,0.0748 0.0147,0.1344 0.005,0.0612 0.009,0.1221 0.0131,0.1924 0.005,0.0666 0.009,0.1301 0.01,0.1857 0.006,0.0564 0.009,0.0967 0.0102,0.1236 0.017,0.1346 0.0317,0.2336 0.0502,0.3016 0.0161,0.0686 0.0255,0.1182 0.0277,0.1508 0,0.0247 -0.004,0.047 -0.008,0.0609 -0.009,0.017 -0.0153,0.0264 -0.0292,0.0264 -0.0255,-0.003 -0.0487,-0.008 -0.0688,-0.0218 -0.021,-0.01 -0.0434,-0.0185 -0.0672,-0.027 -0.0411,-0.0102 -0.0953,-0.0192 -0.1678,-0.0272 -0.0712,-0.01 -0.1531,-0.0161 -0.2466,-0.0207 -0.0332,-8e-4 -0.0981,-0.003 -0.1871,-0.003 -0.0944,-0.002 -0.2055,-0.002 -0.3354,-0.002 -0.1323,0 -0.2684,-0.003 -0.4175,-0.003 -0.1491,0 -0.2945,0 -0.4399,0 -0.1438,-8e-4 -0.2781,-8e-4 -0.3972,-8e-4 -0.1222,0 -0.2202,0 -0.2985,0 -0.0765,0 -0.119,0 -0.1312,0 l -0.396,0.0187 c -0.1057,0.006 -0.2211,0.008 -0.3424,0.008 -0.1205,10e-4 -0.2382,10e-4 -0.351,10e-4 -0.0524,0 -0.0904,-0.004 -0.1173,-0.0147 -0.0233,-0.0139 -0.0363,-0.0332 -0.0363,-0.061 6e-4,-0.0209 0.009,-0.0357 0.023,-0.0448 0.0178,-0.0102 0.0357,-0.0147 0.0549,-0.0147 0.0295,0 0.0664,0 0.1044,-0.002 0.0433,-0.003 0.0827,-0.005 0.123,-0.0116 0.04,-0.002 0.0726,-0.009 0.1003,-0.0153 0.1038,-0.0202 0.1863,-0.055 0.2427,-0.099 0.0604,-0.0433 0.0998,-0.1029 0.1253,-0.1771 0.0249,-0.0717 0.0394,-0.1639 0.0448,-0.2721 0.004,-0.0596 0.007,-0.1251 0.009,-0.1908 0.003,-0.0681 0.005,-0.1491 0.005,-0.2421 0,-0.095 0.003,-0.2149 0.003,-0.3563 0.002,-0.1415 0.002,-0.3178 0.002,-0.5278 0,-0.2121 0,-0.4669 0,-0.7662 v -1.6943 z" /></g></svg>